<svg width="101" height="101" viewBox="0 0 101 101" fill="none" xmlns="http://www.w3.org/2000/svg">
<g id="Accounting">
<g id="cash">
<path id="Vector" d="M88 45.375V25.5C88 19.7917 76.125 17.1667 65.0834 17.1667C61.594 17.1532 58.1096 17.432 54.6667 18V17.1667C54.6667 11.4584 42.7917 8.83337 31.75 8.83337C20.7084 8.83337 8.83337 11.4584 8.83337 17.1667V79.6667C8.83337 85.375 20.7084 88 31.75 88C35.7077 88.0069 39.6567 87.6301 43.5417 86.875C49.394 90.8186 56.41 92.6623 63.445 92.1053C70.4799 91.5482 77.1184 88.6234 82.2771 83.8079C87.4358 78.9925 90.8102 72.5708 91.8495 65.5908C92.8889 58.6108 91.5319 51.4846 88 45.375ZM75.0417 33.0834C78.0831 32.6819 81.0469 31.8251 83.8334 30.5417V39.75C81.3185 37.0272 78.3421 34.7703 75.0417 33.0834ZM31.75 25.5C38.1621 25.7359 44.5517 24.6142 50.5 22.2084V29.6667C50.1667 30.8334 43.9167 33.8334 31.75 33.8334C19.5834 33.8334 13.3334 30.7917 13 29.6667V22.2084C18.9484 24.6142 25.3379 25.7359 31.75 25.5ZM31.5 50.5C30.4784 53.1713 29.8605 55.98 29.6667 58.8334C18.8334 58.5 13.2084 55.7917 13 54.6667V47.2084C18.8732 49.5715 25.1722 50.6922 31.5 50.5ZM13 67.1667V59.7084C18.2781 61.9139 23.9465 63.0334 29.6667 63C29.8666 65.8447 30.4554 68.6486 31.4167 71.3334C19.5 71.3334 13.3334 68.2917 13 67.1667ZM33.3334 46.3334H31.75C19.5834 46.3334 13.3334 43.2917 13 42.1667V34.7084C18.9484 37.1142 25.3379 38.2359 31.75 38C34.62 38.0104 37.4875 37.8294 40.3334 37.4584C37.482 39.9685 35.1102 42.9757 33.3334 46.3334ZM65.0834 21.3334C77.2917 21.3334 83.5417 24.375 83.8334 25.5C84.125 26.625 77.2917 29.6667 65.0834 29.6667C61.5925 29.6747 58.1074 29.3819 54.6667 28.7917V22.2084C58.1074 21.6182 61.5925 21.3254 65.0834 21.3334ZM31.75 13C43.8334 13 50.0834 16 50.5 17.1667C50.0834 18.2917 44.25 21.0834 33.0417 21.3334H31.75C19.5834 21.3334 13.3334 18.2917 13 17.1667C13.3334 16.0417 19.5834 13 31.75 13ZM31.75 83.8334C19.5834 83.8334 13.3334 80.7917 13 79.6667V72.2084C18.9484 74.6142 25.3379 75.7359 31.75 75.5H33.2917C34.8352 78.4213 36.8323 81.0793 39.2084 83.375C36.7339 83.6798 34.2432 83.8328 31.75 83.8334ZM60.9167 88C55.5601 88 50.3238 86.4116 45.87 83.4357C41.4162 80.4597 37.9448 76.2299 35.895 71.281C33.8451 66.3322 33.3088 60.8867 34.3538 55.633C35.3988 50.3794 37.9782 45.5536 41.7659 41.7659C45.5536 37.9782 50.3794 35.3988 55.633 34.3538C60.8867 33.3088 66.3322 33.8451 71.281 35.895C76.2299 37.9448 80.4597 41.4162 83.4357 45.87C86.4116 50.3238 88 55.5601 88 60.9167C87.989 68.0963 85.1321 74.9786 80.0553 80.0553C74.9786 85.1321 68.0963 87.989 60.9167 88Z" fill="#2B2650"/>
<path id="Vector_2" d="M63.0001 58.8333V49.25C63.9625 49.4242 64.8591 49.8578 65.5933 50.5039C66.3275 51.15 66.8716 51.9842 67.1668 52.9166C67.2994 53.4692 67.646 53.9464 68.1305 54.2433C68.615 54.5402 69.1976 54.6326 69.7501 54.5C70.3026 54.3674 70.7798 54.0207 71.0768 53.5362C71.3737 53.0517 71.466 52.4692 71.3334 51.9166C70.7377 50.111 69.6354 48.5147 68.1579 47.318C66.6804 46.1212 64.89 45.3745 63.0001 45.1666V44.25C63.0001 43.6974 62.7806 43.1675 62.3899 42.7768C61.9992 42.3861 61.4693 42.1666 60.9168 42.1666C60.3642 42.1666 59.8343 42.3861 59.4436 42.7768C59.0529 43.1675 58.8334 43.6974 58.8334 44.25V45.125C56.6285 45.3851 54.5854 46.4127 53.0619 48.0276C51.5384 49.6426 50.6315 51.742 50.5001 53.9583C50.5052 54.6025 50.575 55.2447 50.7084 55.875C51.2333 57.7186 52.2792 59.3716 53.7204 60.6354C55.1616 61.8993 56.937 62.7203 58.8334 63V72.625C57.871 72.4507 56.9744 72.0172 56.2402 71.371C55.506 70.7249 54.962 69.8907 54.6668 68.9583C54.5341 68.4058 54.1875 67.9285 53.703 67.6316C53.2185 67.3347 52.636 67.2423 52.0834 67.375C51.5309 67.5076 51.0537 67.8542 50.7567 68.3387C50.4598 68.8232 50.3675 69.4058 50.5001 69.9583C51.0934 71.7615 52.1959 73.3545 53.6747 74.5449C55.1534 75.7352 56.9451 76.4721 58.8334 76.6666V77.5833C58.8334 78.1358 59.0529 78.6657 59.4436 79.0564C59.8343 79.4471 60.3642 79.6666 60.9168 79.6666C61.4693 79.6666 61.9992 79.4471 62.3899 79.0564C62.7806 78.6657 63.0001 78.1358 63.0001 77.5833V76.6666C64.9188 76.4529 66.7322 75.6791 68.2141 74.4417C69.696 73.2043 70.7808 71.5581 71.3334 69.7083C71.4622 69.1054 71.532 68.4914 71.5417 67.875C71.443 65.5927 70.5251 63.4224 68.9564 61.7619C67.3876 60.1013 65.273 59.0616 63.0001 58.8333ZM54.6668 54.6666C54.6234 54.3626 54.6234 54.054 54.6668 53.75C54.7747 52.6434 55.2395 51.602 55.9911 50.7828C56.7427 49.9635 57.7403 49.4109 58.8334 49.2083V58.3333C57.8965 58.1731 57.0183 57.7692 56.2869 57.1621C55.5556 56.5551 54.9968 55.7663 54.6668 54.875V54.6666ZM67.1668 68.75C66.8716 69.6824 66.3275 70.5166 65.5933 71.1627C64.8591 71.8088 63.9625 72.2424 63.0001 72.4166V63.2916C64.0996 63.4963 65.1019 64.0551 65.8542 64.8826C66.6065 65.7101 67.0674 66.761 67.1668 67.875C67.2043 68.1654 67.2043 68.4595 67.1668 68.75Z" fill="#2B2650"/>
</g>
</g>
</svg>
