<svg width="101" height="101" viewBox="0 0 101 101" fill="none" xmlns="http://www.w3.org/2000/svg">
<g id="Additional math">
<path id="Vector" d="M51.2804 17.752C47.2621 14.738 41.5098 17.4562 41.2868 22.4745L40.9671 29.6666H50.5C52.8013 29.6666 54.6667 31.5321 54.6667 33.8333C54.6667 36.1344 52.8013 37.9999 50.5 37.9999H40.5968L38.9578 74.8754C38.415 87.0895 23.9867 93.2541 14.7857 85.2029L14.423 84.8858C12.6911 83.3704 12.5156 80.7379 14.031 79.0062C15.5463 77.2745 18.1787 77.0987 19.9105 78.6141L20.2733 78.9316C24.2166 82.382 30.4001 79.7399 30.6328 74.5054L32.2552 37.9999H25.5C23.1988 37.9999 21.3333 36.1344 21.3333 33.8333C21.3333 31.5321 23.1988 29.6666 25.5 29.6666H32.6256L32.9617 22.1045C33.4821 10.3951 46.9038 4.05276 56.2804 11.0853L57.1667 11.7499C59.0075 13.1306 59.3808 15.7423 58 17.5832C56.6192 19.4242 54.0075 19.7973 52.1667 18.4166L51.2804 17.752Z" fill="#2B2650"/>
<path id="Vector_2" d="M55.0083 54.8592C56.0616 54.2796 57.3854 54.7096 57.8974 55.7975L61.2829 62.9912L47.5533 76.7204C45.9262 78.3475 45.9262 80.9858 47.5533 82.6129C49.1808 84.2404 51.8187 84.2404 53.4458 82.6129L65.0541 71.005L68.3037 77.9108C71.1983 84.0617 79.1137 85.8367 84.3579 81.5104L86.4845 79.7558C88.2595 78.2912 88.5116 75.6654 87.047 73.89C85.5824 72.115 82.9566 71.8633 81.1816 73.3279L79.0545 75.0825C78.0058 75.9475 76.4229 75.5925 75.8437 74.3625L71.3166 64.7425L82.6124 53.4462C84.2399 51.8192 84.2399 49.1808 82.6124 47.5537C80.9854 45.9267 78.3474 45.9267 76.7199 47.5537L67.5454 56.7283L65.4374 52.2492C62.8783 46.81 56.2591 44.6604 50.9924 47.5571L48.4916 48.9325C46.4754 50.0417 45.7399 52.575 46.8487 54.5917C47.9579 56.6079 50.4916 57.3433 52.5079 56.2342L55.0083 54.8592Z" fill="#2B2650"/>
</g>
</svg>
