<svg width="100" height="101" viewBox="0 0 100 101" fill="none" xmlns="http://www.w3.org/2000/svg">
<g id="Biology" clip-path="url(#clip0_38_115)">
<g id="Group 7">
<g id="Group">
<path id="Vector" d="M88.1735 76.7857C85.1531 76.7857 82.398 77.8878 80.3367 79.8061L65.2143 63.8673C68.3776 60.2959 70.2755 55.6225 70.2755 50.398C70.2755 39.2347 61.1531 30.1122 49.9898 30.1122C48.9694 30.1122 47.8469 30.1939 46.8265 30.3571C46.8265 30.3571 50.5408 16.4184 50.5408 16.3367C54.6633 16.0102 57.8265 12.6224 57.8265 8.41837C57.8265 4.05102 54.2551 0.5 49.9082 0.5C45.5612 0.5 42.1327 4.15306 42.1327 8.5C42.1327 11.6633 44.0306 14.3571 46.6429 15.6224V15.7041L42.2959 31.7041C39.602 32.8265 37.1939 34.5 35.2347 36.5408L20.4184 20.6224C22.4796 18.4796 23.7449 15.6224 23.7449 12.3776C23.7449 5.88776 18.4388 0.561224 11.9286 0.561224C5.41837 0.561224 0.112244 5.86735 0.112244 12.3776C0.112244 18.8673 5.41837 24.1939 11.9286 24.1939C13.7245 24.1939 15.5408 23.7245 17.0306 23.0306L32.7653 39.8878C30.8673 42.9694 29.7653 46.6224 29.7653 50.5816C29.7653 55.1531 31.3367 59.4184 33.8469 62.8061C33.8469 62.8061 23.0306 73.7041 22.949 73.7041C20.5816 72.1123 17.8061 71.1735 14.7041 71.1735C6.62245 71.2551 0.132652 77.7449 0.132652 85.8265C0.132652 93.9082 6.62245 100.398 14.7041 100.398C22.7857 100.398 29.2755 93.9082 29.2755 85.8265C29.2755 82.2551 28.0102 79.0102 25.8673 76.4796L36.5612 65.7857C40.1327 68.949 44.8061 70.8469 49.949 70.8469C54.5408 70.8469 58.7449 69.3367 62.1327 66.7449C62.1327 66.7449 77.602 82.9898 77.6837 83.051C76.7245 84.7245 76.2551 86.6225 76.2551 88.6837C76.2551 95.1735 81.5612 100.5 88.0714 100.5C94.5816 100.5 99.8878 95.1939 99.8878 88.6837C99.8878 82.1735 94.6633 76.7857 88.1735 76.7857Z" fill="#2B2650"/>
</g>
<circle id="Ellipse 2" cx="50.5" cy="51" r="11.5" fill="white"/>
</g>
</g>
<defs>
<clipPath id="clip0_38_115">
<rect width="100" height="100" fill="white" transform="translate(0 0.5)"/>
</clipPath>
</defs>
</svg>
