<svg width="100" height="101" viewBox="0 0 100 101" fill="none" xmlns="http://www.w3.org/2000/svg">
<g id="Business studies">
<g id="briefcase simple">
<path id="Vector" d="M85.7917 26.625H14.2083C9.81307 26.625 6.25 30.1881 6.25 34.5833V82.2917C6.25 86.6869 9.81307 90.25 14.2083 90.25H85.7917C90.1869 90.25 93.75 86.6869 93.75 82.2917V34.5833C93.75 30.1881 90.1869 26.625 85.7917 26.625Z" stroke="#2B2650" stroke-width="7.95833" stroke-miterlimit="10" stroke-linecap="square"/>
<path id="Vector_2" d="M57.9584 54.6667H77.8334C79.9393 54.6724 82.0252 54.2591 83.9698 53.4508C85.9144 52.6424 87.6787 51.4553 89.16 49.9585C90.6413 48.4616 91.81 46.685 92.5981 44.7322C93.3861 42.7793 93.7777 40.6891 93.75 38.5834V34.4167C93.75 32.306 92.9116 30.2818 91.4191 28.7893C89.9266 27.2968 87.9024 26.4584 85.7917 26.4584H14.2084C13.1491 26.4581 12.1004 26.6694 11.1239 27.0797C10.1473 27.49 9.26244 28.0912 8.52122 28.8479C7.78 29.6047 7.19731 30.5018 6.80731 31.4866C6.41731 32.4715 6.22785 33.5243 6.25004 34.5834V38.75C6.24454 40.8418 6.65248 42.914 7.45042 44.8476C8.24836 46.7812 9.42057 48.538 10.8997 50.0171C12.3788 51.4962 14.1356 52.6684 16.0692 53.4663C18.0027 54.2643 20.075 54.6722 22.1667 54.6667H57.9584Z" stroke="#2B2650" stroke-width="7.95833" stroke-miterlimit="10"/>
<path id="Vector_3" d="M50 50.5V58.4583" stroke="#2B2650" stroke-width="7.95833" stroke-miterlimit="10" stroke-linecap="square"/>
<path id="Vector_4" d="M65.9166 26.625H34.0833L38.0833 10.75H61.9166L65.9166 26.625Z" stroke="#2B2650" stroke-width="7.95833" stroke-miterlimit="10" stroke-linecap="square"/>
</g>
</g>
</svg>
