<svg width="100" height="101" viewBox="0 0 100 101" fill="none" xmlns="http://www.w3.org/2000/svg">
<g id="Chemistry" clip-path="url(#clip0_38_112)">
<path id="Vector" d="M79.1437 95.2969L62.5031 75.6031V41.0812H64.5843C66.3093 41.0812 67.7093 39.6844 67.7093 37.9562C67.7093 36.2281 66.3093 34.8312 64.5843 34.8312H59.3781C57.6531 34.8312 56.2531 36.2281 56.2531 37.9562V76.8062C56.2531 77.5812 56.5406 78.325 57.0593 78.9L69.7906 94.2656H30.2125L42.9437 78.9C43.4625 78.3281 43.75 77.5812 43.75 76.8062V37.9562C43.75 36.2281 42.3531 34.8312 40.625 34.8312H35.4187C33.6906 34.8312 32.2937 36.2281 32.2937 37.9562C32.2937 39.6844 33.6906 41.0812 35.4187 41.0812H37.5V75.6031L20.8593 95.2969C20.0343 96.2125 19.8218 97.5312 20.3218 98.6594C20.8218 99.7875 21.9437 100.516 23.1781 100.516H76.825C78.0593 100.516 79.1781 99.7875 79.6812 98.6594C80.1812 97.5312 79.9718 96.2125 79.1437 95.2969ZM46.875 31.7188C50.3187 31.7188 53.1093 28.9281 53.1093 25.4844C53.1093 22.0438 50.3187 19.2531 46.875 19.2531C43.4312 19.2531 40.6406 22.0469 40.6406 25.4844C40.6406 28.9281 43.4312 31.7188 46.875 31.7188ZM67.2343 22.4406C73.325 22.4406 78.2625 17.525 78.2625 11.4625C78.2625 5.4 73.3281 0.484375 67.2343 0.484375C61.1468 0.484375 56.2062 5.4 56.2062 11.4625C56.2062 17.525 61.1468 22.4406 67.2343 22.4406ZM67.1843 6.71562C69.7875 6.71562 71.9062 8.825 71.9062 11.4156C71.9062 14.0063 69.7906 16.1156 67.1843 16.1156C64.5781 16.1156 62.4625 14.0063 62.4625 11.4156C62.4625 8.825 64.5781 6.71562 67.1843 6.71562Z" fill="#2B2650"/>
</g>
<defs>
<clipPath id="clip0_38_112">
<rect width="100" height="100" fill="white" transform="translate(0 0.5)"/>
</clipPath>
</defs>
</svg>
