<svg width="100" height="101" viewBox="0 0 100 101" fill="none" xmlns="http://www.w3.org/2000/svg">
<g id="Computer">
<path id="Vector" fill-rule="evenodd" clip-rule="evenodd" d="M8.33337 25.5C8.33337 18.5965 13.9298 13 20.8334 13H79.1667C86.0705 13 91.6667 18.5965 91.6667 25.5V63C91.6667 69.9037 86.0705 75.5 79.1667 75.5H54.1667V79.6667H62.5C64.8013 79.6667 66.6667 81.5321 66.6667 83.8333C66.6667 86.1346 64.8013 88 62.5 88H37.5C35.1989 88 33.3334 86.1346 33.3334 83.8333C33.3334 81.5321 35.1989 79.6667 37.5 79.6667H45.8334V75.5H20.8334C13.9298 75.5 8.33337 69.9037 8.33337 63V25.5ZM20.8334 21.3333C18.5322 21.3333 16.6667 23.1988 16.6667 25.5V63C16.6667 65.3012 18.5322 67.1667 20.8334 67.1667H79.1667C81.468 67.1667 83.3334 65.3012 83.3334 63V25.5C83.3334 23.1988 81.468 21.3333 79.1667 21.3333H20.8334Z" fill="#2B2650"/>
</g>
</svg>
