<svg width="101" height="101" viewBox="0 0 101 101" fill="none" xmlns="http://www.w3.org/2000/svg">
<g id="Economics">
<path id="Vector" d="M67.1666 63H45.5833C46.0684 61.6638 46.322 60.2547 46.3333 58.8333V54.6666H56.75C57.855 54.6666 58.9149 54.2276 59.6963 53.4462C60.4777 52.6648 60.9166 51.605 60.9166 50.5C60.9166 49.3949 60.4777 48.3351 59.6963 47.5537C58.9149 46.7723 57.855 46.3333 56.75 46.3333H46.3333V42.1666C46.3241 40.3806 46.9036 38.6414 47.9822 37.2179C49.0608 35.7944 50.5784 34.7659 52.3003 34.2916C54.0222 33.8172 55.8523 33.9234 57.5078 34.5938C59.1632 35.2641 60.5516 36.4612 61.4583 38C62.0108 38.9614 62.9227 39.6639 63.9932 39.953C65.0637 40.2421 66.2052 40.0942 67.1666 39.5416C68.1281 38.9891 68.8306 38.0773 69.1197 37.0067C69.4088 35.9362 69.2608 34.7947 68.7083 33.8333C66.7985 30.8377 63.9814 28.5308 60.668 27.249C57.3547 25.9673 53.7185 25.7778 50.2899 26.7082C46.8613 27.6386 43.8197 29.6403 41.6088 32.4211C39.398 35.202 38.1335 38.6165 38 42.1666V46.3333H33.8333C32.7282 46.3333 31.6684 46.7723 30.887 47.5537C30.1056 48.3351 29.6666 49.3949 29.6666 50.5C29.6666 51.605 30.1056 52.6648 30.887 53.4462C31.6684 54.2276 32.7282 54.6666 33.8333 54.6666H38V58.8333C38 59.9384 37.561 60.9982 36.7796 61.7796C35.9982 62.561 34.9384 63 33.8333 63C32.7282 63 31.6684 63.4389 30.887 64.2203C30.1056 65.0017 29.6666 66.0616 29.6666 67.1666C29.6666 68.2717 30.1056 69.3315 30.887 70.1129C31.6684 70.8943 32.7282 71.3333 33.8333 71.3333H67.1666C68.2717 71.3333 69.3315 70.8943 70.1129 70.1129C70.8943 69.3315 71.3333 68.2717 71.3333 67.1666C71.3333 66.0616 70.8943 65.0017 70.1129 64.2203C69.3315 63.4389 68.2717 63 67.1666 63ZM50.5 4.66663C41.435 4.66663 32.5736 7.3547 25.0363 12.3909C17.4991 17.4272 11.6245 24.5854 8.1555 32.9603C4.68649 41.3352 3.77883 50.5508 5.54732 59.4416C7.31581 68.3324 11.681 76.4991 18.0909 82.909C24.5008 89.3189 32.6675 93.6841 41.5583 95.4526C50.4491 97.2211 59.6647 96.3134 68.0396 92.8444C76.4146 89.3754 83.5728 83.5008 88.609 75.9636C93.6452 68.4263 96.3333 59.5649 96.3333 50.5C96.3333 38.3442 91.5045 26.6863 82.909 18.0909C74.3136 9.49548 62.6557 4.66663 50.5 4.66663ZM50.5 88C43.0832 88 35.8329 85.8006 29.6661 81.6801C23.4993 77.5595 18.6928 71.7028 15.8545 64.8506C13.0162 57.9984 12.2736 50.4584 13.7205 43.1841C15.1675 35.9098 18.739 29.2279 23.9835 23.9835C29.2279 18.739 35.9098 15.1675 43.1841 13.7205C50.4584 12.2736 57.9984 13.0162 64.8506 15.8545C71.7028 18.6928 77.5595 23.4992 81.6801 29.6661C85.8006 35.8329 88 43.0832 88 50.5C88 60.4456 84.0491 69.9838 77.0165 77.0165C69.9839 84.0491 60.4456 88 50.5 88Z" fill="#2B2650"/>
</g>
</svg>
