<svg width="28" height="28" viewBox="0 0 28 28" fill="none" xmlns="http://www.w3.org/2000/svg">
<path id="Vector" d="M14.221 22.2478L20.4512 26.2034C21.2547 26.7102 22.2436 25.9562 22.0087 25.0291L20.2039 17.9336C20.1551 17.737 20.1629 17.5305 20.2263 17.338C20.2898 17.1456 20.4063 16.975 20.5624 16.8458L26.1498 12.1856C26.8791 11.5799 26.5083 10.3561 25.5564 10.2943L18.2632 9.82455C18.0642 9.81297 17.8729 9.74368 17.7126 9.62513C17.5524 9.50659 17.4301 9.34393 17.3608 9.15703L14.6413 2.30882C14.5693 2.11091 14.4382 1.93996 14.2657 1.81915C14.0932 1.69835 13.8877 1.63354 13.6771 1.63354C13.4665 1.63354 13.2611 1.69835 13.0886 1.81915C12.9161 1.93996 12.7849 2.11091 12.7129 2.30882L9.99343 9.15703C9.92412 9.34393 9.80187 9.50659 9.64162 9.62513C9.48136 9.74368 9.29005 9.81297 9.09105 9.82455L1.79782 10.2943C0.845996 10.3561 0.475154 11.5799 1.20448 12.1856L6.79183 16.8458C6.948 16.975 7.0645 17.1456 7.12793 17.338C7.19135 17.5305 7.19911 17.737 7.15031 17.9336L5.48152 24.5099C5.19721 25.6224 6.3839 26.5248 7.33573 25.9191L13.1332 22.2478C13.2958 22.1444 13.4845 22.0895 13.6771 22.0895C13.8698 22.0895 14.0585 22.1444 14.221 22.2478Z" stroke="#FFA43C" stroke-width="1.50033" stroke-linecap="round" stroke-linejoin="round"/>
</svg>
