<svg width="101" height="101" viewBox="0 0 101 101" fill="none" xmlns="http://www.w3.org/2000/svg">
<g id="English Litreture">
<g id="Group 6">
<g id="Group 4">
<path id="Vector 3" d="M10 3.5H80.5L79.0452 8.13728C77.3915 13.4084 77.4597 19.0693 79.2401 24.299L80.5 28H10V3.5Z" stroke="#2B2650" stroke-width="2.5"/>
<line id="Line 6" x1="26.25" y1="16" x2="75.75" y2="16" stroke="#2B2650" stroke-width="2.5" stroke-linecap="round"/>
</g>
<g id="Group 5">
<path id="Vector 3_2" d="M10 73.25H80.5L79.0452 77.8873C77.3915 83.1584 77.4597 88.8193 79.2401 94.049L80.5 97.75H10V73.25Z" stroke="#2B2650" stroke-width="2.5"/>
<line id="Line 6_2" x1="26.25" y1="85.75" x2="75.75" y2="85.75" stroke="#2B2650" stroke-width="2.5" stroke-linecap="round"/>
</g>
<path id="Subtract" fill-rule="evenodd" clip-rule="evenodd" d="M90.6886 36.25H15.5V63.919H90.6886L88.8801 58.2935C88.1885 56.1425 87.7842 53.923 87.6678 51.6913C87.5255 51.7476 87.3705 51.7785 87.2082 51.7785H34.25C33.5596 51.7785 33 51.2189 33 50.5285C33 49.8381 33.5596 49.2785 34.25 49.2785H87.2082C87.364 49.2785 87.5132 49.307 87.6508 49.3591C87.732 47.1989 88.0827 45.0457 88.7035 42.9503L90.6886 36.25Z" fill="#2B2650"/>
</g>
</g>
</svg>
