<svg width="100" height="89" viewBox="0 0 100 89" fill="none" xmlns="http://www.w3.org/2000/svg">
<g id="English Language">
<path id="Vector" d="M83.3333 63H79.1666M79.1666 63H58.3333M79.1666 63V65.0833C79.1666 77.0375 70.0137 86.8542 58.3333 87.9067M70.8333 56.75V63M20.238 33.8333H38.0952M16.6666 46.3333L23.077 23.8971C24.8955 17.5324 25.8048 14.35 27.2101 13.5509C28.4232 12.8611 29.91 12.8611 31.1231 13.5509C32.5285 14.35 33.4378 17.5324 35.2563 23.8971L41.6666 46.3333M83.3333 87.9067C75.3179 87.1846 68.4925 82.335 64.9983 75.5M58.3333 29.6667C62.2162 29.6667 64.1575 29.6667 65.6891 30.301C67.7308 31.1468 69.3533 32.7691 70.1991 34.811C70.8333 36.3424 70.8333 38.2838 70.8333 42.1667M29.1666 63C29.1666 66.8829 29.1666 68.8242 29.801 70.3558C30.6467 72.3975 32.269 74.02 34.3109 74.8658C35.8424 75.5 37.7838 75.5 41.6666 75.5" stroke="#2B2650" stroke-width="8.33333" stroke-linecap="round" stroke-linejoin="round"/>
</g>
</svg>
