<svg width="100" height="101" viewBox="0 0 100 101" fill="none" xmlns="http://www.w3.org/2000/svg">
<g id="Environmental Management">
<path id="Layer_1_1_" d="M86.4844 84.7187C86.0938 83 86.4062 81.0469 87.4219 79.4062L95.625 66.3594C97.5781 63.2344 98.0469 59.25 97.1875 55.8125L90.7813 27.6094C90.3125 25.3437 88.0469 23.8594 85.7031 24.4062C83.4375 24.875 82.0313 27.1406 82.5781 29.4844L86.5625 46.8281C87.4219 46.9844 88.2812 47.2969 88.9844 47.8437C90.5469 48.8594 91.7188 50.4219 92.1094 52.2187C92.5 54.0156 92.1875 55.9687 91.1719 57.5312L81.7188 72.5312C81.3281 73.1562 80.4688 73.4687 79.7656 72.9219C79.1406 72.5312 78.8281 71.6719 79.375 71.0469L88.9062 55.9687C90.1562 54.0156 89.5312 51.4375 87.5781 50.1875C85.625 48.9375 83.0469 49.5625 81.7969 51.5156L69.9219 70.3437C67.9688 73.3906 66.4844 76.9844 68.2031 80.4219L80 99.4844L99.2188 99.4062L86.4844 84.7187ZM18.4375 51.5156C17.1875 49.5625 14.6094 48.9375 12.6563 50.1875C10.7031 51.4375 10.0781 54.0156 11.3281 55.9687L20.8594 71.0469C21.25 71.5937 21.0938 72.5312 20.4688 72.9219C19.8438 73.3125 18.9844 73.1562 18.5156 72.5312L8.98438 57.5312C7.89063 55.9687 7.65625 54.0156 8.04688 52.2187C8.4375 50.4219 9.60938 48.7812 11.1719 47.8437C11.9531 47.375 12.7344 46.9844 13.5938 46.8281L17.5781 29.4844C18.0469 27.1406 16.6406 24.9531 14.4531 24.4062C12.1094 23.9375 9.92188 25.4219 9.375 27.6094L2.89063 55.8125C2.03125 59.0937 2.5 63.0781 4.45313 66.3594L12.6563 79.4062C13.6719 81.0469 13.9844 83 13.5938 84.7187L0.859375 99.25L20.0781 99.3281L31.875 80.2656C33.5938 76.8281 32.1094 73.3906 30.1562 70.1875L18.4375 51.5156ZM75.0781 39.4062C74.2188 25.5 62.1875 14.9531 48.3594 15.8906C34.4531 16.75 23.9063 28.7812 24.7656 42.6094C25.625 56.5156 37.6562 67.0625 51.4844 66.2031C65.3906 65.3437 75.8594 53.3906 75.0781 39.4062ZM48.5938 63.2344C43.5938 63 38.9844 60.9687 35.1562 57.6875C30.7031 53.7812 28.0469 48.3125 27.6563 42.4531C27.3438 37.1406 28.6719 32.2187 31.7969 28C31.9531 29.0937 32.4219 29.875 32.4219 30.7344C32.4219 33.7031 32.2656 35.5781 34.0625 37.9219C34.8438 38.8594 35.0781 40.2656 35.4688 41.3594C35.8594 42.4531 37.1875 42.9219 38.125 43.625C40 44.875 41.7969 46.3594 43.75 47.4531C45.0781 48.2344 45.8594 48.5469 45.5469 50.1094C45.3125 51.3594 45.3125 52.0625 44.6875 53.2344C44.5312 53.5469 45.625 55.6562 45.9375 55.9687C46.9531 56.9062 47.8906 57.6094 48.9844 58.4687C50.8594 59.4844 49.1406 61.3594 48.5938 63.2344ZM55.3906 62.6094C55.8594 61.0469 56.875 59.6406 57.8906 58.7812C58.75 58 59.7656 56.5937 60.1562 55.6562C60.5469 54.5625 61.0938 53.7031 61.6406 52.6875C62.5 51.2812 59.2188 49.4844 58.2031 49.0156C55.8594 48.1562 54.1406 47.0625 52.0312 45.7344C50.5469 44.7969 46.0938 46.9062 44.4531 46.2031C42.1875 45.3437 41.4844 44.6406 39.4531 43.3125C37.3438 41.9844 37.9688 39.0937 37.8125 36.9062C39.2969 36.9062 41.4844 36.2812 42.6562 37.375C42.9688 37.6875 44.2188 39.4844 44.9219 38.7812C45.4688 38.2344 44.375 36.2812 44.0625 35.8125C43.2813 34.4062 45.3906 33.625 46.3281 32.6875C47.5781 31.2812 50.3906 29.0937 50.1562 28.2344C49.9219 27.2969 47.0312 24.7969 45.3906 25.4219C45.1562 25.5 43.2813 27.375 42.8906 27.8437C42.8906 27.0625 42.7344 26.75 42.7344 26.125C42.7344 25.7344 41.7969 25.2656 41.7969 24.9531C41.875 24.1719 43.75 22.6875 44.2969 22.1406C43.9844 21.9844 42.6562 20.9687 42.3438 21.125C41.4844 21.5156 40.5469 21.9062 39.6094 22.2969C39.6094 21.9844 39.5312 21.75 39.4531 21.3594C41.1719 20.4219 43.0469 19.7969 45 19.4062L46.7969 19.9531L48.125 21.3594L49.4531 22.5312C49.4531 22.5312 50.2344 22.8437 50.5469 22.7656C50.8594 22.6875 52.1094 21.0469 52.1094 21.0469L51.6406 19.875L51.5625 18.7031C55 18.9375 58.2813 20.0312 61.1719 21.8281C60.7031 21.9062 60.0781 21.9844 59.5312 22.1406C59.2969 21.9844 57.9688 22.2969 58.0469 22.7656C58.125 23.2344 60.5469 25.1875 61.5625 26.8281C62.5781 28.625 65.5469 29.7187 65.9375 31.6719C66.4844 33.9375 65.625 36.8281 66.0156 39.4844C66.4062 42.0625 69.2188 44.875 69.2188 44.875C69.2188 44.875 70.4688 45.1875 71.5625 45.0312C70.7812 48.9375 69.0625 52.6094 66.3281 55.6562C63.5156 59.0937 59.6875 61.5156 55.3906 62.6094Z" fill="#2B2650"/>
</g>
</svg>
