<svg width="108" height="107" viewBox="0 0 108 107" fill="none" xmlns="http://www.w3.org/2000/svg">
<g id="experienced-tutors" clip-path="url(#clip0_14_20)">
<path id="Subtract" fill-rule="evenodd" clip-rule="evenodd" d="M61.2191 0.257263H46.2015L45.2629 0.34259L44.3243 0.513245L43.2151 0.854553L41.8499 1.45184L40.5699 2.21979L39.3754 3.15839L38.6074 4.01166L37.8395 5.03558L36.9862 6.6568L36.4742 8.10736L36.1329 9.8139L36.0476 11.7764V16.7254H14.9718L12.8386 16.8107L11.9 16.8961L10.6201 17.2374L9.34021 17.92L8.23096 18.7733L7.20703 19.9678L6.60974 20.9918L6.09778 22.2717L5.75647 23.8076L5.67114 30.2071V36.8626L5.75647 87.8882L2.85535 88.0589L1.66077 88.9122L1.23413 89.3388L1.06348 90.2774V98.2128L1.23413 99.7487L1.49011 100.773L2.17273 102.223L3.026 103.503L3.62329 104.1L4.64722 105.039L6.60974 106.148L7.97498 106.66L9.34021 106.831H97.8245L100.214 106.746L100.811 106.66L101.92 106.234L102.944 105.722L104.139 104.954L104.992 104.186L105.675 103.332L106.357 102.309L106.954 100.943L107.296 99.834L107.552 98.2128V89.6801L107.381 89.2535L106.187 88.4002L105.419 87.9736H103.883L102.944 88.0589V24.9168L102.859 23.3809L102.603 22.1863L102.005 20.8211L101.238 19.6265L100.214 18.6026L99.4457 18.0053L98.3364 17.408L97.0565 16.9814L95.8619 16.8107L93.7288 16.7254L72.653 16.6401V11.3498L72.5676 10.1552L72.3116 8.44867L71.7997 6.91278L71.1171 5.54755L70.3491 4.35297L69.5812 3.41437L68.6426 2.5611L67.6187 1.87848L66.2534 1.19586L64.4615 0.598572L62.9257 0.34259L61.2191 0.257263ZM35.877 19.7972H33.9144L13.2653 19.8825L11.9854 20.0532L11.0468 20.4798L10.2788 21.1624L9.59619 22.0157L9.08423 22.9543L8.82825 24.0635L8.74292 45.822V51.1976L8.82825 87.8029L8.91357 87.9736L9.42554 88.0589H68.4719L80.4177 88.1442L80.8444 88.3149L81.1857 88.8268L81.271 89.6801L81.015 90.96L80.5031 91.0453L79.2231 91.1307L64.8882 91.216L64.8029 93.7758L64.5469 95.1411L63.9496 96.0797L63.3523 96.6769L62.8403 97.0182L62.0724 97.2742L60.4512 97.3596H48.2494L46.4575 97.2742L46.0309 97.1889L45.5189 96.8476L45.0923 96.421L44.4097 95.4824L44.0684 94.7144L43.8977 93.3492V91.3013L43.8124 91.216L32.2932 91.1307H4.30591L4.13525 91.216V98.3835L4.30591 99.3221L4.64722 100.261L5.32983 101.37L6.52441 102.565L7.46301 103.162L8.31628 103.503L9.85217 103.674H99.531L100.47 103.503L101.494 102.991L102.432 102.394L103.2 101.626L103.968 100.431L104.309 99.4927L104.565 97.7009V91.3013L104.48 91.216L86.7319 91.0453L86.22 90.8747L85.964 90.6187L85.6227 89.9361V88.9975L85.708 88.8268L86.1346 88.4855L86.5613 88.0589H99.7017L99.8723 87.9736V24.6608L99.7017 23.1249L99.275 22.1863L98.5071 21.1624L97.6538 20.4798L96.6299 20.0532L95.0087 19.8825H72.7383L72.5676 20.0532V20.5651L72.9089 20.9918L73.9329 21.2477L75.2128 21.5037L76.2367 21.9304L76.6633 22.5276L77.0046 22.869L78.2845 22.9543L94.7527 23.0396L95.2646 23.1249L95.8619 23.4662L96.2032 23.8929L96.5446 24.7462V79.6968L96.4592 80.2941L96.2886 80.8061L95.8619 80.9767L92.7902 81.0621H13.4359L12.4973 80.9767L12.412 80.8061L12.156 79.8675L12.0707 77.649V26.794L12.156 24.6608L12.2413 24.3195L12.924 23.3809L13.5212 23.1249L27.3442 23.0396L31.3546 22.9543L31.6106 22.869L32.0372 22.5276L32.8905 21.7597L33.8291 21.4184L35.2797 21.1624L35.9623 20.9918V19.8825L35.877 19.7972ZM46.6282 3.32904H61.2191L63.6083 3.49969L64.7175 3.841L66.1681 4.60895L67.1067 5.37689L67.7893 6.05951L68.5573 7.25409L69.0692 8.44867L69.3252 9.38727L69.4105 9.98456L69.4958 11.4351V17.7493L69.4105 20.2238L69.0692 20.3091L68.2159 19.7972L66.5947 18.6879L65.4001 17.7493L64.1202 16.5547L63.3523 15.7015L62.243 14.1656L61.3898 13.0563L60.5365 12.5444L59.9392 12.459L58.7446 13.0563L57.3794 14.1656L55.6729 15.3602L53.7957 16.5547L51.8331 17.7493L51.0652 18.3466L50.8092 18.6879L50.8945 19.4559L51.3212 20.3091L51.7478 20.5651H52.4304L53.1984 20.3091L54.9049 19.4559L56.7821 18.3466L57.9767 17.4933L58.7446 16.8961L59.7686 16.0428L60.0245 16.1281L60.7925 17.408L61.9017 18.6879L63.0963 19.8825L64.2909 20.8211L65.3148 21.5891L66.5094 22.2717L67.8746 22.9543L69.3252 23.7222L69.4958 23.9782V30.7191L69.4105 34.3028L69.1545 36.2653L68.7279 37.9719L68.0453 39.6784L67.2773 41.129L66.3387 42.4942L65.3148 43.6888L64.6322 44.2861L63.5229 45.2247L61.9871 46.2486L60.5365 47.0165L58.4033 47.7845L56.2701 48.2111L55.5022 48.2964H52.4304L50.8945 48.0405L49.1027 47.4432L47.3108 46.6752L45.7749 45.7366L44.5803 44.798L43.3004 43.6035L42.5325 42.6649L41.6792 41.4703L40.9113 40.1904L40.4846 39.3371L39.7167 37.2892L39.3754 35.924L39.2047 34.3881L39.1194 30.975V24.5755L39.2047 23.9782L41.8499 23.7222L45.007 23.2103L46.2869 22.869L46.7988 22.5276L46.8842 21.9304L46.7135 20.8211L46.3722 20.1385V19.9678H45.6896L41.6792 20.7358L39.546 21.0771H39.2047L39.1194 19.2852V11.1791L39.29 9.38727L39.7167 8.10736L40.314 6.99811L41.1672 5.88885L42.0205 5.03558L42.9591 4.35297L43.983 3.841L45.0923 3.49969L46.6282 3.32904ZM30.0747 26.1114H15.1425L15.0571 26.282V77.8196L15.1425 77.9903L15.5691 78.0756H17.6169L18.7262 77.9903L18.8969 77.905L18.9822 77.393L19.0675 68.6043L19.1528 67.6657L19.4088 66.3005L19.9208 64.6793L20.6887 63.058L21.4567 61.7781L22.3099 60.7542L23.3339 59.8156L24.4431 58.877L25.8083 58.0237L27.3442 57.3411L29.3068 56.7438L36.1329 55.2079L41.5939 54.0134L43.4711 53.5014L44.3243 53.0748L44.751 52.3922L44.9216 51.4536V49.5764L44.751 48.9791L44.4097 48.5524L43.3004 47.6992L42.3618 46.8459L41.3379 45.9073L40.9113 45.4807L40.314 44.798L39.3754 43.6035L38.5221 42.2382L37.5835 40.2757L36.9862 38.5692L36.5596 36.7773L36.2183 34.3881L36.1329 32.5109L35.9623 31.999L34.6824 31.9136L34.2557 31.8283L33.4025 31.487L32.2079 30.8044L31.2693 29.7805L30.7573 28.9272L30.3307 27.9033L30.0747 26.1114ZM78.7112 26.1114H93.5581L93.6434 26.1967V73.8946L93.5581 77.905L93.3021 77.9903H90.8276L89.889 77.905L89.6331 77.649V68.8603L89.3771 67.0684L88.8651 65.2766L88.1825 63.6553L87.3292 62.0341L86.6466 61.0955L85.8787 60.2422L85.2814 59.645L84.0015 58.7064L82.8069 58.0237L81.1857 57.3411L79.5645 56.8292L70.6051 54.7813L66.5947 53.928L64.8029 53.4161L64.2909 53.0748L63.8643 52.1362L63.7789 51.6242V49.235L64.1202 48.6378L65.9121 47.2725L66.5094 46.6752L67.192 46.0779L68.3013 44.8834L68.9839 44.0301L69.7518 42.9208L70.7758 41.0436L71.5437 38.9958L72.0557 37.1186L72.4823 34.7294V32.3403L72.653 31.999H73.6769L74.5302 31.8283L75.8954 31.1457L76.834 30.4631L77.5166 29.6951L78.0286 28.7565L78.3699 27.8179L78.5405 26.9647V26.282L78.7112 26.1114ZM71.2024 58.0237L70.2638 57.8531L70.1785 57.9384L69.0692 58.7064L67.448 59.9009L66.0828 60.9249L64.8882 61.7781L63.5229 62.8874L62.1577 63.9113L60.6218 64.8499L59.9392 65.3619V66.4711L60.1952 70.0549L60.5365 76.2838L60.7072 77.9903L61.1338 78.0756H69.2399L86.3906 77.9903L86.6466 77.8196L86.5613 68.775L86.476 67.9217L86.22 66.6418L85.708 65.2766L85.0254 63.9966L84.2574 62.9727L83.6602 62.2901L83.2335 61.9488L82.2949 61.1808L80.8444 60.4129L79.4791 59.9009L77.3459 59.389L73.3356 58.5357L71.2024 58.0237ZM37.7542 57.9384H38.5221L39.7167 58.7917L41.5085 60.1569L42.7031 61.0102L44.239 62.1194L45.8602 63.314L47.3961 64.4233L48.5054 65.1059L48.676 65.2766L48.5907 67.0684L48.1641 74.0652L47.9081 77.7343L47.7374 77.9903L36.7302 78.0756H22.2246L22.054 77.9903V68.8603L22.2246 67.4951L22.6512 66.1298L23.2485 64.7646L24.2725 63.2287L25.2111 62.2048L26.1497 61.3515L27.2589 60.6689L28.1975 60.2422L29.4774 59.8156L33.2318 58.9623L36.3889 58.2797L37.7542 57.9384ZM54.7343 60.7542L54.2223 60.5836L53.625 61.0102L52.6011 62.1194L52.0038 62.8874L51.8331 63.9113L51.5771 68.0923L50.9799 76.7957V77.9903L51.4065 78.0756H54.2223L57.55 77.9903L57.6354 77.905V77.4783L57.2941 71.9321L56.9528 65.4472L56.7821 62.9727L56.0995 62.0341L54.7343 60.7542ZM49.1027 91.1307H61.3044L61.7311 91.216L61.8164 91.8986L61.7311 94.2025L61.6458 94.2878H49.5293L46.9695 94.2025L46.8842 93.9465V91.5573L46.9695 91.216L49.1027 91.1307ZM48.676 50.515L48.0787 50.4296L47.9081 50.7709L47.9934 51.3682L48.42 51.7949L49.1027 52.3068L50.9799 53.8427L53.1984 55.5493L54.0516 56.0612L54.5636 56.2319L55.0756 55.8052L56.0995 55.0373L57.6354 53.928L58.83 52.9894L60.3658 51.7949L60.7072 51.2829L60.7925 50.7709L60.5365 50.4296L59.7686 50.515L59.0859 50.7709L57.4647 51.1122L54.7343 51.3682L52.4304 51.2829L51.0652 51.1122L48.676 50.515ZM46.7988 54.8666L47.3108 54.952L48.932 56.0612L50.0413 56.9145L50.8092 57.5118L51.9185 58.2797V58.4504H51.7478L51.5771 58.7917L49.444 60.9249L48.8467 61.6075L48.42 61.4368L46.8842 60.3276L45.5189 59.3036L43.8977 58.1091L42.7031 57.3411L42.5325 56.9998L44.5803 56.4879L45.5189 55.9759L46.4575 55.1226L46.7988 54.8666ZM61.7311 54.8666L61.3898 54.7813L61.1338 54.952L60.2805 55.7199L58.4886 57.0851L56.8674 58.2797L56.7821 58.5357L59.6832 61.4368L60.1099 61.5222L60.9631 60.9249L62.499 59.8156L63.267 59.2183L64.4615 58.3651L65.8268 57.3411L65.9974 56.9998L65.6561 56.8292L64.1202 56.4025L62.755 55.7199L61.7311 54.8666ZM35.621 23.8929H35.9623L36.0476 24.0635V28.7565L35.877 29.0125L34.7677 28.8419L34.2557 28.5005L33.7438 27.9033L33.4025 27.306L33.1465 26.538L33.2318 25.6848L33.9998 24.7462L35.1943 24.0635L35.621 23.8929ZM74.3595 24.4902L72.8236 23.8929L72.653 24.2342V28.6712L72.7383 28.8419L73.1649 29.0125L73.6769 28.9272L74.5302 28.4152L75.0421 27.8179L75.4688 26.9647V26.0261L75.1274 25.1728L74.3595 24.4902Z" fill="white"/>
<path id="Vector" d="M50.6385 40.0197L51.4065 40.105L52.7717 40.7023L53.4543 40.873H55.0756L56.0995 40.617L57.55 40.0197H58.1473L58.574 40.361L59.1713 41.5556L59.0859 42.1529L58.7446 42.6649L58.062 43.1768L56.7821 43.7741L55.5875 44.0301L53.9663 44.1154L52.6011 43.9448L51.4918 43.6035L50.4679 43.0915L49.7 42.4089L49.444 41.8969L49.7 41.0436L50.2972 40.2757L50.6385 40.0197Z" fill="white"/>
<path id="Vector_2" d="M62.1577 25.7701L63.0963 25.8554L63.5229 26.1967L63.8643 27.05L64.0349 28.5859L63.9496 30.8044L63.6936 31.487L63.267 31.999L62.755 32.2549L61.9017 32.1696L61.4751 31.9136L61.0485 31.4017L60.8778 31.0604L60.7925 30.4631V28.1592L60.9631 26.8793L61.3044 26.1967L61.6458 25.9407L62.1577 25.7701Z" fill="white"/>
<path id="Vector_3" d="M45.8602 25.7701H46.7988L47.3108 26.1114L47.6521 26.794L47.8228 27.9033V30.0364L47.6521 31.231L47.3108 31.9136L47.0548 32.0843L45.7749 32.1696L45.1776 31.9136L44.9216 31.487L44.751 30.5484V26.9647L45.007 26.3674L45.6896 25.8554L45.8602 25.7701Z" fill="white"/>
</g>
<defs>
<clipPath id="clip0_14_20">
<rect width="106.5" height="106.5" fill="white" transform="translate(0.75)"/>
</clipPath>
</defs>
</svg>
