<svg width="27" height="25" viewBox="0 0 27 25" fill="none" xmlns="http://www.w3.org/2000/svg">
<path id="Vector" d="M14.2939 20.7478L20.5241 24.7034C21.3275 25.2102 22.3165 24.4562 22.0816 23.5291L20.2768 16.4336C20.228 16.237 20.2358 16.0305 20.2992 15.838C20.3626 15.6456 20.4791 15.475 20.6353 15.3458L26.2227 10.6856C26.952 10.0799 26.5811 8.85609 25.6293 8.79428L18.3361 8.32455C18.1371 8.31297 17.9458 8.24368 17.7855 8.12513C17.6253 8.00659 17.503 7.84393 17.4337 7.65703L14.7142 0.808817C14.6422 0.610915 14.5111 0.439957 14.3386 0.319152C14.1661 0.198346 13.9606 0.133545 13.75 0.133545C13.5394 0.133545 13.3339 0.198346 13.1614 0.319152C12.9889 0.439957 12.8578 0.610915 12.7858 0.808817L10.0663 7.65703C9.997 7.84393 9.87475 8.00659 9.71449 8.12513C9.55424 8.24368 9.36292 8.31297 9.16393 8.32455L1.8707 8.79428C0.918872 8.85609 0.54803 10.0799 1.27735 10.6856L6.86471 15.3458C7.02087 15.475 7.13738 15.6456 7.2008 15.838C7.26423 16.0305 7.27199 16.237 7.22319 16.4336L5.5544 23.0099C5.27009 24.1224 6.45678 25.0248 7.40861 24.4191L13.2061 20.7478C13.3687 20.6444 13.5573 20.5895 13.75 20.5895C13.9427 20.5895 14.1313 20.6444 14.2939 20.7478Z" fill="#FFA43C"/>
</svg>
