<svg width="50" height="51" viewBox="0 0 50 51" fill="none" xmlns="http://www.w3.org/2000/svg">
<g id="gmail_symbol.svg">
<rect y="0.5" width="50" height="50" rx="25" fill="white"/>
<g id="Group">
<g id="Group_2">
<path id="Vector" d="M13.8952 35.2503H17.9804V25.3722L12.1444 20.9819V33.501C12.1444 34.4614 12.934 35.2503 13.8952 35.2503Z" fill="#2B2650"/>
<path id="Vector_2" d="M31.9526 35.2503H36.0378C36.999 35.2503 37.7886 34.4614 37.7886 33.501V20.9819L31.9526 25.3379" fill="#2B2650"/>
<path id="Vector_3" d="M31.9526 17.792V25.372L37.7886 21.016V18.6494C37.7886 16.4886 35.3169 15.2538 33.6004 16.5572" fill="#2B2650"/>
<path id="Vector_4" d="M17.9805 25.372V17.792L24.9837 23.0397L31.9526 17.792V25.372L24.9494 30.5855" fill="#2B2650"/>
<path id="Vector_5" d="M12.1444 18.6497V20.982L17.9804 25.3379V17.7922L16.3326 16.5574C14.6161 15.2884 12.1444 16.5231 12.1444 18.6497Z" fill="#2B2650"/>
</g>
</g>
</g>
</svg>
