<svg width="50" height="51" viewBox="0 0 50 51" fill="none" xmlns="http://www.w3.org/2000/svg">
<g id="in">
<rect y="0.5" width="50" height="50" rx="25" fill="white"/>
<g id="Group 1">
<path id="Path 2520" d="M33.9247 34.4252H30.1773V28.5564C30.1773 27.1569 30.1523 25.3553 28.2282 25.3553C26.2764 25.3553 25.9778 26.8801 25.9778 28.4545V34.4248H22.2303V22.3561H25.8279V24.0054H25.8783C26.2383 23.3898 26.7585 22.8834 27.3836 22.5401C28.0087 22.1968 28.7151 22.0295 29.4278 22.0559C33.226 22.0559 33.9263 24.5543 33.9263 27.8045L33.9247 34.4252ZM18.002 20.7064C17.5719 20.7065 17.1514 20.579 16.7937 20.3401C16.4361 20.1012 16.1573 19.7616 15.9926 19.3642C15.828 18.9669 15.7848 18.5296 15.8686 18.1077C15.9525 17.6859 16.1595 17.2983 16.4636 16.9941C16.7677 16.6899 17.1551 16.4827 17.577 16.3987C17.9988 16.3148 18.4361 16.3577 18.8335 16.5223C19.2309 16.6868 19.5706 16.9655 19.8096 17.3231C20.0486 17.6807 20.1762 18.1011 20.1763 18.5312C20.1763 18.8168 20.1201 19.0996 20.0109 19.3635C19.9017 19.6274 19.7415 19.8672 19.5396 20.0691C19.3377 20.2711 19.098 20.4314 18.8342 20.5407C18.5704 20.65 18.2876 20.7063 18.002 20.7064ZM19.8757 34.4252H16.1244V22.3561H19.8757V34.4252ZM35.793 12.8767H14.2413C13.7521 12.8712 13.2808 13.0601 12.9308 13.402C12.5809 13.7438 12.381 14.2106 12.375 14.6998V36.3415C12.3808 36.8309 12.5806 37.2981 12.9305 37.6403C13.2804 37.9824 13.7519 38.1717 14.2413 38.1665H35.793C36.2833 38.1727 36.7561 37.9839 37.1074 37.6417C37.4588 37.2996 37.6599 36.8319 37.6667 36.3415V14.6982C37.6597 14.2081 37.4584 13.7407 37.1071 13.3989C36.7557 13.0571 36.2831 12.8687 35.793 12.8752" fill="#2B2650"/>
</g>
</g>
</svg>
