<svg width="50" height="51" viewBox="0 0 50 51" fill="none" xmlns="http://www.w3.org/2000/svg">
<g id="insta">
<rect y="0.5" width="50" height="50" rx="25" fill="white"/>
<g id="Group">
<path id="Vector" d="M25.0098 10.8267C21.0227 10.8267 20.5223 10.8441 18.9563 10.9153C17.3934 10.9868 16.3266 11.2341 15.3932 11.5968C14.4276 11.9715 13.6085 12.4728 12.7925 13.2885C11.9759 14.1039 11.4743 14.9223 11.0981 15.8869C10.7341 16.82 10.4864 17.8863 10.416 19.4474C10.346 21.0122 10.3276 21.5125 10.3276 25.4967C10.3276 29.4808 10.3454 29.9793 10.4163 31.5441C10.4882 33.1058 10.7356 34.1718 11.0984 35.1046C11.4737 36.0695 11.9753 36.8879 12.7916 37.7033C13.6073 38.5193 14.4264 39.0218 15.3913 39.3965C16.3254 39.7593 17.3925 40.0065 18.9551 40.0781C20.5211 40.1492 21.0211 40.1667 25.0079 40.1667C28.9953 40.1667 29.4942 40.1493 31.0601 40.078C32.623 40.0065 33.6911 39.7593 34.6251 39.3965C35.5904 39.0218 36.4083 38.5193 37.224 37.7033C38.0406 36.8879 38.5422 36.0695 38.9184 35.1049C39.2793 34.1718 39.527 33.1055 39.6004 31.5444C39.6708 29.9796 39.6891 29.4808 39.6891 25.4967C39.6891 21.5125 39.6708 21.0125 39.6004 19.4477C39.527 17.886 39.2793 16.82 38.9184 15.8872C38.5422 14.9223 38.0406 14.1039 37.224 13.2885C36.4073 12.4724 35.5907 11.9712 34.6242 11.5968C33.6883 11.2341 32.6209 10.9868 31.058 10.9153C29.492 10.8441 28.9935 10.8267 25.0052 10.8267H25.0098ZM23.6928 13.4703C24.0836 13.4697 24.5198 13.4703 25.0098 13.4703C28.9296 13.4703 29.3941 13.4844 30.9421 13.5547C32.3735 13.6201 33.1503 13.8591 33.6678 14.0599C34.3529 14.3258 34.8414 14.6436 35.3549 15.1571C35.8687 15.6705 36.1868 16.1595 36.4535 16.8441C36.6545 17.3606 36.894 18.1369 36.9591 19.5672C37.0294 21.1137 37.0447 21.5782 37.0447 25.4933C37.0447 29.4083 37.0294 29.8729 36.9591 31.4194C36.8936 32.8497 36.6545 33.626 36.4535 34.1425C36.1874 34.8271 35.8687 35.3146 35.3549 35.8277C34.8411 36.3412 34.3532 36.659 33.6678 36.9249C33.1509 37.1266 32.3735 37.365 30.9421 37.4304C29.3945 37.5007 28.9296 37.516 25.0098 37.516C21.0897 37.516 20.6251 37.5007 19.0775 37.4304C17.6461 37.3644 16.8692 37.1254 16.3514 36.9246C15.6663 36.6587 15.1769 36.3408 14.6631 35.8274C14.1493 35.314 13.8312 34.8262 13.5645 34.1413C13.3635 33.6248 13.124 32.8485 13.0589 31.4181C12.9886 29.8717 12.9745 29.4071 12.9745 25.4896C12.9745 21.5721 12.9886 21.11 13.0589 19.5636C13.1244 18.1332 13.3635 17.357 13.5645 16.8398C13.8306 16.1552 14.1493 15.6662 14.6631 15.1528C15.1769 14.6393 15.6663 14.3215 16.3514 14.055C16.8689 13.8533 17.6461 13.6149 19.0775 13.5492C20.4318 13.488 20.9566 13.4697 23.6928 13.4666L23.6928 13.4703ZM32.8463 15.9061C31.8737 15.9061 31.0846 16.6938 31.0846 17.6659C31.0846 18.6378 31.8737 19.4263 32.8463 19.4263C33.8189 19.4263 34.608 18.6378 34.608 17.6659C34.608 16.694 33.8189 15.9055 32.8463 15.9055L32.8463 15.9061ZM25.0098 17.963C20.8462 17.963 17.4705 21.3362 17.4705 25.4967C17.4705 29.6571 20.8462 33.0288 25.0098 33.0288C29.1733 33.0288 32.5478 29.6571 32.5478 25.4967C32.5478 21.3362 29.173 17.963 25.0095 17.963H25.0098ZM25.0098 20.6067C27.7123 20.6067 29.9034 22.7959 29.9034 25.4967C29.9034 28.1972 27.7123 30.3867 25.0098 30.3867C22.307 30.3867 20.1161 28.1972 20.1161 25.4967C20.1161 22.7959 22.307 20.6067 25.0098 20.6067Z" fill="#2B2650"/>
</g>
</g>
</svg>
