<svg width="280" height="153" viewBox="0 0 280 153" fill="none" xmlns="http://www.w3.org/2000/svg">
<path d="M64.1053 101.851H48.0175V67.4037C48.0175 63.7195 46.7281 60.7926 44.1491 58.623C41.5702 56.4125 38.0906 55.3072 33.7105 55.3072C29.9035 55.3072 26.6901 56.8628 24.0702 59.9739C21.4503 63.0441 20.1404 66.8101 20.1404 71.2721C20.1404 75.4066 21.4708 78.9066 24.1316 81.7721C26.7924 84.5967 30.1491 86.009 34.2018 86.009C36.9035 86.009 39.9737 85.3745 43.4123 84.1055V100.869C39.2778 101.851 35.8801 102.342 33.2193 102.342C28.6345 102.342 24.4591 101.524 20.693 99.8862C16.9678 98.2078 13.8977 95.9563 11.4825 93.1318C9.10819 90.3072 7.26608 87.0733 5.95614 83.43C4.68713 79.7867 4.05263 75.9593 4.05263 71.9476C4.05263 62.2867 6.89766 54.4271 12.5877 48.3686C18.2778 42.2692 25.4006 39.2195 33.9561 39.2195C43.0439 39.2195 50.3304 41.7984 55.8158 46.9563C61.3421 52.0733 64.1053 58.6435 64.1053 66.6669V101.851ZM90.7544 40.7546H102.421V56.3511H90.7544V78.9476C90.7544 81.1581 91.2456 82.8569 92.2281 84.0441C93.2515 85.1903 94.6023 85.7634 96.2807 85.7634H102.421V101.851H94.0088C86.9678 101.851 81.9737 99.9476 79.0263 96.1405C76.1199 92.2926 74.6667 86.7253 74.6667 79.4388V24.3598H90.7544V40.7546ZM117.096 125.86V109.404C123.114 111.737 129.48 112.904 136.193 112.904C137.912 112.904 139.468 112.801 140.86 112.597C142.251 112.433 143.684 112.065 145.158 111.491C146.673 110.918 147.921 110.161 148.904 109.219C149.927 108.319 150.766 107.07 151.421 105.474C152.076 103.877 152.404 101.994 152.404 99.8248V69.9212C152.404 65.2955 151.032 61.7546 148.289 59.2984C145.547 56.8014 142.354 55.5528 138.711 55.5528C134.74 55.5528 131.465 56.9242 128.886 59.6669C126.307 62.3686 125.018 65.9096 125.018 70.2897C125.018 74.6289 126.287 78.0879 128.825 80.6669C131.404 83.2049 134.699 84.4739 138.711 84.4739C141.453 84.4739 144.421 83.9827 147.614 83.0002V99.702C144.339 100.807 141.371 101.36 138.711 101.36C129.582 101.36 122.336 98.4943 116.974 92.7634C111.611 87.0324 108.93 79.623 108.93 70.5353C108.93 61.4066 111.611 53.9154 116.974 48.0616C122.336 42.1669 129.582 39.2195 138.711 39.2195C143.991 39.2195 148.924 40.5499 153.509 43.2107C158.135 45.8306 161.778 49.3511 164.439 53.7721C167.14 58.1522 168.491 62.8189 168.491 67.7721V97.3072C168.491 118.43 157.848 128.991 136.561 128.991C129.234 128.991 122.746 127.948 117.096 125.86Z" fill="white"/>
<path d="M196.168 66.062L195.208 62.0887H189.822L188.888 66.062H184.355L189.928 47.582H195.235L200.808 66.062H196.168ZM190.568 58.9153H194.462L192.515 50.7553L190.568 58.9153ZM209.45 47.1287C210.606 47.1287 211.628 47.2976 212.517 47.6353C213.424 47.9731 214.277 48.4798 215.077 49.1553L212.997 51.6353C212.446 51.2087 211.904 50.8887 211.37 50.6753C210.837 50.462 210.268 50.3553 209.664 50.3553C208.419 50.3553 207.433 50.8798 206.704 51.9287C205.993 52.9776 205.637 54.5953 205.637 56.782C205.637 58.9331 205.993 60.5331 206.704 61.582C207.433 62.6131 208.437 63.1287 209.717 63.1287C210.393 63.1287 211.006 63.0042 211.557 62.7553C212.108 62.4887 212.704 62.1153 213.344 61.6353L215.29 64.142C214.597 64.8353 213.753 65.4042 212.757 65.8487C211.779 66.2931 210.695 66.5153 209.504 66.5153C207.797 66.5153 206.313 66.142 205.05 65.3953C203.788 64.6487 202.802 63.5465 202.09 62.0887C201.397 60.6131 201.05 58.8442 201.05 56.782C201.05 54.7731 201.406 53.0398 202.117 51.582C202.846 50.1242 203.842 49.022 205.104 48.2753C206.384 47.5109 207.833 47.1287 209.45 47.1287ZM228.576 47.582L228.122 50.702H221.616V55.1287H227.296V58.1953H221.616V62.9153H228.576V66.062H217.242V47.582H228.576ZM199.075 72.582L198.648 75.942H194.088V91.062H189.715V75.942H184.942V72.582H199.075ZM214.996 84.9287C214.996 86.1909 214.721 87.3198 214.169 88.3153C213.636 89.3109 212.827 90.0931 211.743 90.662C210.658 91.2309 209.334 91.5153 207.769 91.5153C205.423 91.5153 203.636 90.9198 202.409 89.7287C201.183 88.5376 200.569 86.9376 200.569 84.9287V72.582H204.943V84.742C204.943 85.9331 205.165 86.822 205.609 87.4087C206.072 87.9776 206.792 88.262 207.769 88.262C208.765 88.262 209.485 87.9776 209.929 87.4087C210.392 86.822 210.623 85.9331 210.623 84.742V72.582H214.996V84.9287ZM230.846 72.582L230.419 75.942H225.859V91.062H221.486V75.942H216.713V72.582H230.846ZM239.136 72.1287C241.767 72.1287 243.812 72.9731 245.269 74.662C246.745 76.3509 247.483 78.7331 247.483 81.8087C247.483 83.8176 247.145 85.5509 246.469 87.0087C245.812 88.4665 244.852 89.5865 243.589 90.3687C242.345 91.1331 240.861 91.5153 239.136 91.5153C237.412 91.5153 235.927 91.1331 234.683 90.3687C233.438 89.6042 232.478 88.502 231.803 87.062C231.145 85.6042 230.816 83.8531 230.816 81.8087C230.816 79.8176 231.145 78.0931 231.803 76.6353C232.478 75.1776 233.438 74.0665 234.683 73.302C235.927 72.5198 237.412 72.1287 239.136 72.1287ZM239.136 75.3287C237.874 75.3287 236.932 75.8442 236.309 76.8753C235.705 77.8887 235.403 79.5331 235.403 81.8087C235.403 84.0842 235.714 85.7376 236.336 86.7687C236.958 87.7998 237.892 88.3153 239.136 88.3153C240.416 88.3153 241.358 87.8087 241.963 86.7953C242.585 85.7642 242.896 84.102 242.896 81.8087C242.896 79.5153 242.585 77.862 241.963 76.8487C241.341 75.8353 240.398 75.3287 239.136 75.3287ZM256.187 83.9953H254.48V91.062H250.107V72.582H256.16C258.685 72.582 260.578 73.0442 261.84 73.9687C263.12 74.8931 263.76 76.3065 263.76 78.2087C263.76 79.3998 263.476 80.3953 262.907 81.1953C262.338 81.9776 261.44 82.6442 260.214 83.1953L264.907 91.062H259.974L256.187 83.9953ZM254.48 80.982H256.32C257.298 80.982 258.027 80.7598 258.507 80.3153C259.005 79.8709 259.254 79.1687 259.254 78.2087C259.254 77.3198 258.987 76.6709 258.454 76.262C257.938 75.8531 257.138 75.6487 256.054 75.6487H254.48V80.982ZM272.278 72.1287C273.664 72.1287 274.864 72.3242 275.878 72.7153C276.909 73.1065 277.842 73.702 278.678 74.502L276.651 76.8753C275.389 75.8442 274.038 75.3287 272.598 75.3287C271.833 75.3287 271.229 75.4887 270.784 75.8087C270.34 76.1109 270.118 76.5553 270.118 77.142C270.118 77.5509 270.215 77.8887 270.411 78.1553C270.606 78.4042 270.953 78.6442 271.451 78.8753C271.949 79.1065 272.695 79.382 273.691 79.702C275.575 80.3065 276.962 81.0531 277.851 81.942C278.74 82.8131 279.184 84.0576 279.184 85.6753C279.184 86.8309 278.891 87.8531 278.304 88.742C277.718 89.6131 276.873 90.2976 275.771 90.7953C274.669 91.2753 273.362 91.5153 271.851 91.5153C270.34 91.5153 268.998 91.2753 267.824 90.7953C266.669 90.3153 265.673 89.6753 264.838 88.8753L267.051 86.4487C267.762 87.0531 268.491 87.5065 269.238 87.8087C270.002 88.1109 270.829 88.262 271.718 88.262C272.624 88.262 273.335 88.0665 273.851 87.6753C274.384 87.2665 274.651 86.7065 274.651 85.9953C274.651 85.5331 274.553 85.1509 274.358 84.8487C274.162 84.5287 273.824 84.2442 273.344 83.9953C272.864 83.7465 272.171 83.4798 271.264 83.1953C269.22 82.5731 267.762 81.8087 266.891 80.902C266.038 79.9953 265.611 78.8487 265.611 77.462C265.611 76.3953 265.895 75.462 266.464 74.662C267.033 73.8442 267.824 73.222 268.838 72.7953C269.851 72.3509 270.998 72.1287 272.278 72.1287ZM194.435 97.1287C196.817 97.1287 198.871 97.8842 200.595 99.3953L198.382 101.715C197.724 101.218 197.111 100.862 196.542 100.649C195.991 100.418 195.351 100.302 194.622 100.302C193.253 100.302 192.159 100.844 191.342 101.929C190.524 102.995 190.115 104.622 190.115 106.809C190.115 109.173 190.426 110.853 191.048 111.849C191.671 112.826 192.639 113.315 193.955 113.315C194.879 113.315 195.715 113.111 196.462 112.702V108.515H194.062L193.635 105.422H200.702V114.569C199.742 115.191 198.684 115.671 197.528 116.009C196.373 116.346 195.217 116.515 194.062 116.515C191.253 116.515 189.137 115.698 187.715 114.062C186.293 112.409 185.582 109.991 185.582 106.809C185.582 104.782 185.964 103.04 186.728 101.582C187.511 100.124 188.568 99.022 189.902 98.2753C191.253 97.5109 192.764 97.1287 194.435 97.1287ZM207.996 97.582V112.595H215.196L214.743 116.062H203.623V97.582H207.996ZM223.641 97.1287C226.272 97.1287 228.317 97.9731 229.775 99.662C231.25 101.351 231.988 103.733 231.988 106.809C231.988 108.818 231.65 110.551 230.975 112.009C230.317 113.466 229.357 114.586 228.095 115.369C226.85 116.133 225.366 116.515 223.641 116.515C221.917 116.515 220.432 116.133 219.188 115.369C217.944 114.604 216.984 113.502 216.308 112.062C215.65 110.604 215.321 108.853 215.321 106.809C215.321 104.818 215.65 103.093 216.308 101.635C216.984 100.178 217.944 99.0665 219.188 98.302C220.432 97.5198 221.917 97.1287 223.641 97.1287ZM223.641 100.329C222.379 100.329 221.437 100.844 220.815 101.875C220.21 102.889 219.908 104.533 219.908 106.809C219.908 109.084 220.219 110.738 220.841 111.769C221.464 112.8 222.397 113.315 223.641 113.315C224.921 113.315 225.864 112.809 226.468 111.795C227.09 110.764 227.401 109.102 227.401 106.809C227.401 104.515 227.09 102.862 226.468 101.849C225.846 100.835 224.904 100.329 223.641 100.329ZM244.452 106.275C245.679 106.506 246.674 106.96 247.439 107.635C248.221 108.311 248.612 109.324 248.612 110.675C248.612 112.649 247.901 114.044 246.479 114.862C245.074 115.662 243.101 116.062 240.559 116.062H234.612V97.582H239.839C242.434 97.582 244.417 97.9553 245.785 98.702C247.154 99.4309 247.839 100.631 247.839 102.302C247.839 103.386 247.51 104.266 246.852 104.942C246.212 105.6 245.412 106.044 244.452 106.275ZM238.985 100.675V104.969H240.612C242.461 104.969 243.385 104.222 243.385 102.729C243.385 101.982 243.137 101.458 242.639 101.155C242.141 100.835 241.35 100.675 240.265 100.675H238.985ZM240.585 112.889C241.741 112.889 242.612 112.72 243.199 112.382C243.803 112.026 244.105 111.378 244.105 110.435C244.105 108.729 243.039 107.875 240.905 107.875H238.985V112.889H240.585ZM260.674 116.062L259.714 112.089H254.327L253.394 116.062H248.86L254.434 97.582H259.74L265.314 116.062H260.674ZM255.074 108.915H258.967L257.02 100.755L255.074 108.915ZM271.043 97.582V112.595H278.243L277.789 116.062H266.669V97.582H271.043Z" fill="white"/>
</svg>
