<svg width="180" height="98" viewBox="0 0 180 98" fill="none" xmlns="http://www.w3.org/2000/svg">
<path d="M41.2105 65.3684H30.8684V43.2237C30.8684 40.8553 30.0395 38.9737 28.3816 37.5789C26.7237 36.1579 24.4868 35.4474 21.6711 35.4474C19.2237 35.4474 17.1579 36.4474 15.4737 38.4474C13.7895 40.421 12.9474 42.8421 12.9474 45.7105C12.9474 48.3684 13.8026 50.6184 15.5132 52.4605C17.2237 54.2763 19.3816 55.1842 21.9868 55.1842C23.7237 55.1842 25.6974 54.7763 27.9079 53.9605V64.7368C25.25 65.3684 23.0658 65.6842 21.3553 65.6842C18.4079 65.6842 15.7237 65.1579 13.3026 64.1053C10.9079 63.0263 8.93421 61.5789 7.38158 59.7631C5.85526 57.9474 4.67105 55.8684 3.82895 53.5263C3.01316 51.1842 2.60526 48.7237 2.60526 46.1447C2.60526 39.9342 4.43421 34.8816 8.0921 30.9868C11.75 27.0658 16.3289 25.1053 21.8289 25.1053C27.6711 25.1053 32.3553 26.7631 35.8816 30.0789C39.4342 33.3684 41.2105 37.5921 41.2105 42.75V65.3684ZM58.3421 26.0921H65.8421V36.1184H58.3421V50.6447C58.3421 52.0658 58.6579 53.1579 59.2895 53.921C59.9474 54.6579 60.8158 55.0263 61.8947 55.0263H65.8421V65.3684H60.4342C55.9079 65.3684 52.6974 64.1447 50.8026 61.6974C48.9342 59.2237 48 55.6447 48 50.9605V15.5526H58.3421V26.0921ZM75.2763 80.8026V70.2237C79.1447 71.7237 83.2368 72.4737 87.5526 72.4737C88.6579 72.4737 89.6579 72.4079 90.5526 72.2763C91.4474 72.171 92.3684 71.9342 93.3158 71.5658C94.2895 71.1974 95.0921 70.7105 95.7237 70.1053C96.3816 69.5263 96.921 68.7237 97.3421 67.6974C97.7632 66.671 97.9737 65.4605 97.9737 64.0658V44.8421C97.9737 41.8684 97.0921 39.5921 95.3289 38.0131C93.5658 36.4079 91.5132 35.6053 89.1711 35.6053C86.6184 35.6053 84.5132 36.4868 82.8553 38.25C81.1974 39.9868 80.3684 42.2631 80.3684 45.0789C80.3684 47.8684 81.1842 50.0921 82.8158 51.75C84.4737 53.3816 86.5921 54.1974 89.1711 54.1974C90.9342 54.1974 92.8421 53.8816 94.8947 53.25V63.9868C92.7895 64.6974 90.8816 65.0526 89.1711 65.0526C83.3026 65.0526 78.6447 63.2105 75.1974 59.5263C71.75 55.8421 70.0263 51.0789 70.0263 45.2368C70.0263 39.3684 71.75 34.5526 75.1974 30.7895C78.6447 27 83.3026 25.1053 89.1711 25.1053C92.5658 25.1053 95.7368 25.9605 98.6842 27.671C101.658 29.3553 104 31.6184 105.711 34.4605C107.447 37.2763 108.316 40.2763 108.316 43.4605V62.4474C108.316 76.0263 101.474 82.8158 87.7895 82.8158C83.0789 82.8158 78.9079 82.1447 75.2763 80.8026Z" fill="#2B2650"/>
<path d="M126.108 42.7895L125.491 40.2352H122.028L121.428 42.7895H118.514L122.097 30.9095H125.508L129.091 42.7895H126.108ZM122.508 38.1952H125.011L123.76 32.9495L122.508 38.1952ZM134.647 30.6181C135.39 30.6181 136.047 30.7266 136.618 30.9438C137.201 31.1609 137.75 31.4866 138.264 31.9209L136.927 33.5152C136.572 33.2409 136.224 33.0352 135.881 32.8981C135.538 32.7609 135.172 32.6923 134.784 32.6923C133.984 32.6923 133.35 33.0295 132.881 33.7038C132.424 34.3781 132.195 35.4181 132.195 36.8238C132.195 38.2066 132.424 39.2352 132.881 39.9095C133.35 40.5723 133.995 40.9038 134.818 40.9038C135.252 40.9038 135.647 40.8238 136.001 40.6638C136.355 40.4923 136.738 40.2523 137.15 39.9438L138.401 41.5552C137.955 42.0009 137.412 42.3666 136.772 42.6523C136.144 42.9381 135.447 43.0809 134.681 43.0809C133.584 43.0809 132.63 42.8409 131.818 42.3609C131.007 41.8809 130.372 41.1723 129.915 40.2352C129.47 39.2866 129.247 38.1495 129.247 36.8238C129.247 35.5323 129.475 34.4181 129.932 33.4809C130.401 32.5438 131.041 31.8352 131.852 31.3552C132.675 30.8638 133.607 30.6181 134.647 30.6181ZM146.942 30.9095L146.65 32.9152H142.467V35.7609H146.119V37.7323H142.467V40.7666H146.942V42.7895H139.656V30.9095H146.942ZM127.977 46.9095L127.703 49.0695H124.771V58.7895H121.96V49.0695H118.891V46.9095H127.977ZM138.212 54.8466C138.212 55.6581 138.035 56.3838 137.68 57.0238C137.338 57.6638 136.818 58.1666 136.12 58.5323C135.423 58.8981 134.572 59.0809 133.566 59.0809C132.058 59.0809 130.909 58.6981 130.12 57.9323C129.332 57.1666 128.938 56.1381 128.938 54.8466V46.9095H131.749V54.7266C131.749 55.4923 131.892 56.0638 132.178 56.4409C132.475 56.8066 132.938 56.9895 133.566 56.9895C134.206 56.9895 134.669 56.8066 134.955 56.4409C135.252 56.0638 135.4 55.4923 135.4 54.7266V46.9095H138.212V54.8466ZM148.401 46.9095L148.127 49.0695H145.195V58.7895H142.384V49.0695H139.315V46.9095H148.401ZM153.73 46.6181C155.422 46.6181 156.736 47.1609 157.673 48.2466C158.622 49.3323 159.096 50.8638 159.096 52.8409C159.096 54.1323 158.879 55.2466 158.445 56.1838C158.022 57.1209 157.405 57.8409 156.593 58.3438C155.793 58.8352 154.839 59.0809 153.73 59.0809C152.622 59.0809 151.668 58.8352 150.868 58.3438C150.068 57.8523 149.45 57.1438 149.016 56.2181C148.593 55.2809 148.382 54.1552 148.382 52.8409C148.382 51.5609 148.593 50.4523 149.016 49.5152C149.45 48.5781 150.068 47.8638 150.868 47.3723C151.668 46.8695 152.622 46.6181 153.73 46.6181ZM153.73 48.6752C152.919 48.6752 152.313 49.0066 151.913 49.6695C151.525 50.3209 151.33 51.3781 151.33 52.8409C151.33 54.3038 151.53 55.3666 151.93 56.0295C152.33 56.6923 152.93 57.0238 153.73 57.0238C154.553 57.0238 155.159 56.6981 155.548 56.0466C155.948 55.3838 156.148 54.3152 156.148 52.8409C156.148 51.3666 155.948 50.3038 155.548 49.6523C155.148 49.0009 154.542 48.6752 153.73 48.6752ZM164.692 54.2466H163.594V58.7895H160.783V46.9095H164.674C166.297 46.9095 167.514 47.2066 168.326 47.8009C169.149 48.3952 169.56 49.3038 169.56 50.5266C169.56 51.2923 169.377 51.9323 169.012 52.4466C168.646 52.9495 168.069 53.3781 167.28 53.7323L170.297 58.7895H167.126L164.692 54.2466ZM163.594 52.3095H164.777C165.406 52.3095 165.874 52.1666 166.183 51.8809C166.503 51.5952 166.663 51.1438 166.663 50.5266C166.663 49.9552 166.492 49.5381 166.149 49.2752C165.817 49.0123 165.303 48.8809 164.606 48.8809H163.594V52.3095ZM175.036 46.6181C175.927 46.6181 176.698 46.7438 177.35 46.9952C178.013 47.2466 178.613 47.6295 179.15 48.1438L177.847 49.6695C177.036 49.0066 176.167 48.6752 175.241 48.6752C174.75 48.6752 174.361 48.7781 174.076 48.9838C173.79 49.1781 173.647 49.4638 173.647 49.8409C173.647 50.1038 173.71 50.3209 173.836 50.4923C173.961 50.6523 174.184 50.8066 174.504 50.9552C174.824 51.1038 175.304 51.2809 175.944 51.4866C177.156 51.8752 178.047 52.3552 178.618 52.9266C179.19 53.4866 179.476 54.2866 179.476 55.3266C179.476 56.0695 179.287 56.7266 178.91 57.2981C178.533 57.8581 177.99 58.2981 177.281 58.6181C176.573 58.9266 175.733 59.0809 174.761 59.0809C173.79 59.0809 172.927 58.9266 172.173 58.6181C171.43 58.3095 170.79 57.8981 170.253 57.3838L171.676 55.8238C172.133 56.2123 172.601 56.5038 173.081 56.6981C173.573 56.8923 174.104 56.9895 174.676 56.9895C175.258 56.9895 175.716 56.8638 176.047 56.6123C176.39 56.3495 176.561 55.9895 176.561 55.5323C176.561 55.2352 176.498 54.9895 176.373 54.7952C176.247 54.5895 176.03 54.4066 175.721 54.2466C175.413 54.0866 174.967 53.9152 174.384 53.7323C173.07 53.3323 172.133 52.8409 171.573 52.2581C171.024 51.6752 170.75 50.9381 170.75 50.0466C170.75 49.3609 170.933 48.7609 171.298 48.2466C171.664 47.7209 172.173 47.3209 172.824 47.0466C173.476 46.7609 174.213 46.6181 175.036 46.6181ZM124.994 62.6181C126.525 62.6181 127.845 63.1038 128.954 64.0752L127.531 65.5666C127.108 65.2466 126.714 65.0181 126.348 64.8809C125.994 64.7323 125.583 64.6581 125.114 64.6581C124.234 64.6581 123.531 65.0066 123.005 65.7038C122.48 66.3895 122.217 67.4352 122.217 68.8409C122.217 70.3609 122.417 71.4409 122.817 72.0809C123.217 72.7095 123.84 73.0238 124.685 73.0238C125.28 73.0238 125.817 72.8923 126.297 72.6295V69.9381H124.754L124.48 67.9495H129.023V73.8295C128.405 74.2295 127.725 74.5381 126.983 74.7552C126.24 74.9723 125.497 75.0809 124.754 75.0809C122.948 75.0809 121.588 74.5552 120.674 73.5038C119.76 72.4409 119.303 70.8866 119.303 68.8409C119.303 67.5381 119.548 66.4181 120.04 65.4809C120.543 64.5438 121.223 63.8352 122.08 63.3552C122.948 62.8638 123.92 62.6181 124.994 62.6181ZM133.712 62.9095V72.5609H138.34L138.049 74.7895H130.9V62.9095H133.712ZM143.769 62.6181C145.461 62.6181 146.775 63.1609 147.712 64.2466C148.661 65.3323 149.135 66.8638 149.135 68.8409C149.135 70.1323 148.918 71.2466 148.484 72.1838C148.061 73.1209 147.444 73.8409 146.632 74.3438C145.832 74.8352 144.878 75.0809 143.769 75.0809C142.661 75.0809 141.707 74.8352 140.907 74.3438C140.107 73.8523 139.489 73.1438 139.055 72.2181C138.632 71.2809 138.421 70.1552 138.421 68.8409C138.421 67.5609 138.632 66.4523 139.055 65.5152C139.489 64.5781 140.107 63.8638 140.907 63.3723C141.707 62.8695 142.661 62.6181 143.769 62.6181ZM143.769 64.6752C142.958 64.6752 142.352 65.0066 141.952 65.6695C141.564 66.3209 141.369 67.3781 141.369 68.8409C141.369 70.3038 141.569 71.3666 141.969 72.0295C142.369 72.6923 142.969 73.0238 143.769 73.0238C144.592 73.0238 145.198 72.6981 145.587 72.0466C145.987 71.3838 146.187 70.3152 146.187 68.8409C146.187 67.3666 145.987 66.3038 145.587 65.6523C145.187 65.0009 144.581 64.6752 143.769 64.6752ZM157.148 68.4981C157.936 68.6466 158.576 68.9381 159.068 69.3723C159.571 69.8066 159.822 70.4581 159.822 71.3266C159.822 72.5952 159.365 73.4923 158.451 74.0181C157.548 74.5323 156.279 74.7895 154.645 74.7895H150.822V62.9095H154.182C155.851 62.9095 157.125 63.1495 158.005 63.6295C158.885 64.0981 159.325 64.8695 159.325 65.9438C159.325 66.6409 159.114 67.2066 158.691 67.6409C158.279 68.0638 157.765 68.3495 157.148 68.4981ZM153.634 64.8981V67.6581H154.679C155.868 67.6581 156.462 67.1781 156.462 66.2181C156.462 65.7381 156.302 65.4009 155.982 65.2066C155.662 65.0009 155.154 64.8981 154.456 64.8981H153.634ZM154.662 72.7495C155.405 72.7495 155.965 72.6409 156.342 72.4238C156.731 72.1952 156.925 71.7781 156.925 71.1723C156.925 70.0752 156.239 69.5266 154.868 69.5266H153.634V72.7495H154.662ZM167.576 74.7895L166.959 72.2352H163.496L162.896 74.7895H159.982L163.564 62.9095H166.976L170.559 74.7895H167.576ZM163.976 70.1952H166.479L165.227 64.9495L163.976 70.1952ZM174.242 62.9095V72.5609H178.87L178.579 74.7895H171.43V62.9095H174.242Z" fill="#2B2650"/>
</svg>
