<svg width="101" height="101" viewBox="0 0 101 101" fill="none" xmlns="http://www.w3.org/2000/svg">
<g id="Mathematics">
<path id="Vector" d="M20.0427 13.0781H79.5801C81.9411 13.0781 84.2054 14.016 85.8748 15.6855C87.5443 17.355 88.4822 19.6193 88.4822 21.9802V81.5354C88.4822 83.8964 87.5443 86.1607 85.8748 87.8301C84.2054 89.4996 81.9411 90.4375 79.5801 90.4375H20.0427C17.6818 90.4375 15.4175 89.4996 13.748 87.8301C12.0785 86.1607 11.1406 83.8964 11.1406 81.5354V21.9802C11.1406 19.6193 12.0785 17.355 13.748 15.6855C15.4175 14.016 17.6818 13.0781 20.0427 13.0781Z" stroke="#2B2650" stroke-width="5.34127" stroke-linecap="round"/>
<path id="Vector_2" d="M30.6541 25.6658V40.5323" stroke="#2B2650" stroke-width="5.34127" stroke-linecap="round"/>
<path id="Vector_3" d="M23.2297 33.0901H38.0962" stroke="#2B2650" stroke-width="5.34127" stroke-linecap="round"/>
<path id="Vector_4" d="M24.5472 65.2267L36.4938 77.1733" stroke="#2B2650" stroke-width="5.34127" stroke-linecap="round"/>
<path id="Vector_5" d="M24.5472 77.1733L36.4938 65.2267" stroke="#2B2650" stroke-width="5.34127" stroke-linecap="round"/>
<path id="Vector_6" d="M60.9212 33.0901H77.7997" stroke="#2B2650" stroke-width="5.34127" stroke-linecap="round"/>
<path id="Vector_7" d="M60.8144 65.2267H77.6928" stroke="#2B2650" stroke-width="5.34127" stroke-linecap="round"/>
<path id="Vector_8" d="M60.8144 75.6422H77.6928" stroke="#2B2650" stroke-width="5.34127" stroke-linecap="round"/>
<path id="Vector_9" d="M49.8292 13.0781V90.4375" stroke="#2B2650" stroke-width="5.34127" stroke-linecap="round"/>
<path id="Vector_10" d="M11.1406 51.7489H88.5" stroke="#2B2650" stroke-width="5.34127" stroke-linecap="round"/>
</g>
</svg>
