<svg width="100" height="101" viewBox="0 0 100 101" fill="none" xmlns="http://www.w3.org/2000/svg">
<g id="Physics" clip-path="url(#clip0_38_86)">
<g id="Group">
<g id="Group_2">
<path id="Vector" d="M95.4545 16.8637C95.6818 16.1818 95.4545 15.5 94.7727 14.8182L87.9545 8C87.0453 7.09082 85.6818 7.09082 84.7727 8L68.8635 23.9092C68.409 24.3637 68.1816 24.8184 68.1816 25.5V32.3182C68.1816 33.6818 69.0908 34.5908 70.4543 34.5908H77.2725C77.9543 34.5908 78.4088 34.3635 78.8635 33.909L91.818 20.9545H93.1816C94.5453 20.9545 95.4543 21.8637 95.4543 23.2271V77.7727C95.4543 79.1363 94.5451 80.0453 93.1816 80.0453H6.81816C5.45449 80.0453 4.54551 79.1361 4.54551 77.7727V23.2273C4.54551 21.8637 5.45469 20.9547 6.81816 20.9547H63.6363C65 20.9547 65.909 20.0455 65.909 18.682C65.909 17.3184 64.9998 16.4094 63.6363 16.4094H6.81816C2.95449 16.4092 0 19.3637 0 23.2273V77.7729C0 81.6365 2.95449 84.591 6.81816 84.591H93.1818C97.0455 84.591 100 81.6365 100 77.7729V23.2273C100 20.2727 97.9545 17.7727 95.4545 16.8637ZM89.3182 17.0908L76.3637 30.0453H72.7273V26.409L86.3637 12.7727L90 16.4092L89.3182 17.0908Z" fill="#2B2650"/>
</g>
</g>
<g id="Group_3">
<g id="Group_4">
<path id="Vector_2" d="M18.1818 52.7726C19.5455 52.7726 20.4545 51.8634 20.4545 50.5C20.4545 49.1363 19.5453 48.2273 18.1818 48.2273H13.6363V43.6818H18.1818C19.5455 43.6818 20.4545 42.7726 20.4545 41.4091C20.4545 40.0455 19.5453 39.1365 18.1818 39.1365H11.3637C9.99999 39.1365 9.091 40.0457 9.091 41.4091V59.591C9.091 60.9546 10.0002 61.8636 11.3637 61.8636H18.1818C19.5455 61.8636 20.4545 60.9544 20.4545 59.591C20.4545 58.2275 19.5453 57.3183 18.1818 57.3183H13.6363V52.7728H18.1818V52.7726Z" fill="#2B2650"/>
</g>
</g>
<g id="Group_5">
<g id="Group_6">
<path id="Vector_3" d="M34.0908 43.6819H27.2727C25.909 43.6819 25 44.5911 25 45.9545C25 47.318 25.9092 48.2272 27.2727 48.2272H34.0908C35.4545 48.2272 36.3635 47.318 36.3635 45.9545C36.3635 44.5911 35.4545 43.6819 34.0908 43.6819Z" fill="#2B2650"/>
</g>
</g>
<g id="Group_7">
<g id="Group_8">
<path id="Vector_4" d="M34.0908 52.7727H27.2727C25.909 52.7727 25 53.6819 25 55.0454C25 56.409 25.9092 57.318 27.2727 57.318H34.0908C35.4545 57.318 36.3635 56.4088 36.3635 55.0454C36.3637 53.6819 35.4545 52.7727 34.0908 52.7727Z" fill="#2B2650"/>
</g>
</g>
<g id="Group_9">
<g id="Group_10">
<path id="Vector_5" d="M75 52.7727C73.6364 52.7727 72.7274 53.6819 72.7274 55.0453C72.7274 56.409 71.8182 57.318 70.4547 57.318C69.0912 57.318 68.1821 56.4088 68.1821 55.0453V45.9545C68.1821 44.5908 69.0912 43.6819 70.4547 43.6819C71.8182 43.6819 72.7274 44.591 72.7274 45.9545C72.7274 47.318 73.6365 48.2272 75 48.2272C76.3635 48.2272 77.2727 47.318 77.2727 45.9545C77.2727 42.0908 74.3182 39.1364 70.4545 39.1364C66.5908 39.1364 63.6364 42.0908 63.6364 45.9545V55.0453C63.6364 58.909 66.5908 61.8635 70.4545 61.8635C74.3182 61.8635 77.2727 58.909 77.2727 55.0453C77.2727 53.6819 76.3637 52.7727 75 52.7727Z" fill="#2B2650"/>
</g>
</g>
<g id="Group_11">
<g id="Group_12">
<path id="Vector_6" d="M57.7274 39.3636C56.8182 38.9091 55.9092 39.1363 55.2274 39.8181L50 45.0455L44.7727 39.8181C44.0908 39.1363 43.1819 38.909 42.2727 39.3636C41.3635 39.591 40.909 40.5 40.909 41.4091V59.591C40.909 60.9547 41.8182 61.8636 43.1817 61.8636C44.5453 61.8636 45.4543 60.9545 45.4543 59.591V46.8636L48.4088 49.8181C49.318 50.7273 50.6815 50.7273 51.5906 49.8181L54.5451 46.8636V59.591C54.5451 60.9547 55.4543 61.8636 56.8178 61.8636C58.1813 61.8636 59.0904 60.9545 59.0904 59.591V41.4091C59.0908 40.5 58.6363 39.5908 57.7274 39.3636Z" fill="#2B2650"/>
</g>
</g>
<g id="Group_13">
<g id="Group_14">
<path id="Vector_7" d="M88.6363 45.9545L90 44.1363C91.1363 42.7726 91.1363 40.9545 90.4545 39.3636C89.7726 37.7728 88.1818 36.8636 86.3637 36.8636H84.091C82.7273 36.8636 81.8183 37.7728 81.8183 39.1363C81.8183 40.4998 82.7275 41.409 84.091 41.409H86.3637L82.2728 46.8635C81.8183 47.5453 81.591 48.4543 82.0455 49.1361C82.5 49.8179 83.1818 50.5 84.0908 50.5H88.6363C90 50.5 90.909 49.5908 90.909 48.2273C90.909 46.8638 90 45.9545 88.6363 45.9545Z" fill="#2B2650"/>
</g>
</g>
<g id="Group_15">
<g id="Group_16">
<path id="Vector_8" d="M97.7273 89.1364H2.27266C0.90918 89.1364 0 90.0455 0 91.409C0 92.7727 0.90918 93.6817 2.27266 93.6817H97.7271C99.0908 93.6817 99.9998 92.7725 99.9998 91.409C100 90.0455 99.0908 89.1364 97.7273 89.1364Z" fill="#2B2650"/>
</g>
</g>
</g>
<defs>
<clipPath id="clip0_38_86">
<rect width="100" height="100" fill="white" transform="translate(0 0.5)"/>
</clipPath>
</defs>
</svg>
