<svg width="100" height="101" viewBox="0 0 100 101" fill="none" xmlns="http://www.w3.org/2000/svg">
<g id="Psychology" clip-path="url(#clip0_38_200)">
<g id="Group 3">
<path id="Vector 2" d="M56.9301 66.9232V68.6732H58.9479L58.6626 66.6757L56.9301 66.9232ZM37.1801 66.9232H35.4301V68.6732H37.1801V66.9232ZM37.1801 49.1732H38.9301V48.5831L38.5729 48.1135L37.1801 49.1732ZM43.4302 16.1732L44.135 17.775L44.1679 17.7605L44.2002 17.7446L43.4302 16.1732ZM72.4301 33.6732L70.6833 33.778L70.7094 34.2135L70.9369 34.5857L72.4301 33.6732ZM72.4301 42.6732V40.9232H70.6801V42.6732H72.4301ZM72.4301 54.9232L72.5382 56.6698L74.1801 56.5683V54.9232H72.4301ZM44.9932 51.7831C44.2254 51.196 43.1271 51.3424 42.54 52.1101C41.9529 52.8779 42.0994 53.9762 42.8671 54.5633L44.9932 51.7831ZM77.4653 41.9124L78.9585 40.9999L77.4653 41.9124ZM53.6977 56.6707L55.1977 67.1707L58.6626 66.6757L57.1626 56.1757L53.6977 56.6707ZM56.9301 65.1732H37.1801V68.6732H56.9301V65.1732ZM38.9301 66.9232V49.1732H35.4301V66.9232H38.9301ZM44.2002 17.7446C50.9999 14.4127 57.3848 15.56 62.2053 18.9428C67.091 22.3714 70.3417 28.0843 70.6833 33.778L74.177 33.5684C73.7686 26.762 69.9349 20.0912 64.2158 16.0779C58.4317 12.0189 50.6916 10.6662 42.6601 14.6017L44.2002 17.7446ZM70.9369 34.5857L75.972 42.825L78.9585 40.9999L73.9234 32.7606L70.9369 34.5857ZM77.0386 40.9232H72.4301V44.4232H77.0386V40.9232ZM70.6801 42.6732V54.9232H74.1801V42.6732H70.6801ZM72.3221 53.1765C68.317 53.4243 62.0984 53.6344 56.4777 53.4615C53.6638 53.375 51.041 53.1935 48.9367 52.8826C47.884 52.7271 46.9958 52.5441 46.2952 52.3371C45.566 52.1216 45.1675 51.9163 44.9932 51.7831L42.8671 54.5633C43.5428 55.08 44.4198 55.4325 45.3035 55.6936C46.2159 55.9632 47.2781 56.1755 48.4251 56.345C50.7203 56.6841 53.4944 56.8714 56.3701 56.9599C62.1286 57.137 68.46 56.9221 72.5382 56.6698L72.3221 53.1765ZM42.7254 14.5714C28.9344 20.6394 26.5311 38.0673 35.7874 50.2328L38.5729 48.1135C30.3293 37.279 32.9259 22.7069 44.135 17.775L42.7254 14.5714ZM75.972 42.825C75.463 41.992 76.0625 40.9232 77.0386 40.9232V44.4232C78.7957 44.4232 79.8747 42.4992 78.9585 40.9999L75.972 42.825Z" fill="#2B2650"/>
<path id="Rectangle 2" d="M15.25 88.75C15.25 85.7124 17.7124 83.25 20.75 83.25H83.75V94.25H20.75C17.7124 94.25 15.25 91.7876 15.25 88.75Z" stroke="#2B2650" stroke-width="3.5"/>
<path id="Line 1" d="M21 89H78" stroke="#2B2650" stroke-width="3.5" stroke-linecap="round"/>
<g id="Group 2">
<path id="Line 3" d="M18.5 78.5L88 78.5" stroke="#2B2650" stroke-width="3.5" stroke-linecap="round"/>
<path id="Vector 1" d="M13.6509 78.6382C12.8988 79.2452 12.7812 80.347 13.3882 81.0991C13.9952 81.8512 15.097 81.9688 15.8491 81.3618L13.6509 78.6382ZM18.3733 76.7546C17.4792 76.8195 16.6739 76.9495 15.8703 77.269C15.0698 77.5874 14.3781 78.0513 13.6509 78.6382L15.8491 81.3618C16.4386 80.886 16.8196 80.6581 17.1637 80.5213C17.5048 80.3856 17.9161 80.297 18.6267 80.2454L18.3733 76.7546Z" fill="#2B2650"/>
</g>
<path id="Rectangle 3" d="M10.75 10.5C10.75 5.94365 14.4437 2.25 19 2.25H88.75V98.75H19C14.4437 98.75 10.75 95.0564 10.75 90.5V10.5Z" stroke="#2B2650" stroke-width="3.5"/>
<path id="Line 4" d="M22.5 73.5C22.5 72.5335 21.7165 71.75 20.75 71.75C19.7835 71.75 19 72.5335 19 73.5H22.5ZM22.5 78.5V73.5H19V78.5H22.5Z" fill="#2B2650"/>
<path id="Line 5" d="M19 67.5C19 68.4665 19.7835 69.25 20.75 69.25C21.7165 69.25 22.5 68.4665 22.5 67.5L19 67.5ZM22.5 2L22.5 0.25L19 0.25L19 2L22.5 2ZM22.5 67.5L22.5 2L19 2L19 67.5L22.5 67.5Z" fill="#2B2650"/>
</g>
</g>
<defs>
<clipPath id="clip0_38_200">
<rect width="100" height="100" fill="white" transform="translate(0 0.5)"/>
</clipPath>
</defs>
</svg>
