<svg width="108" height="107" viewBox="0 0 108 107" fill="none" xmlns="http://www.w3.org/2000/svg">
<g id="flexibity" clip-path="url(#clip0_14_57)">
<path id="Vector" d="M13.3321 19.5745L13.8941 19.8554L14.5263 20.4876L15.0882 20.9793L16.2823 22.1734L16.493 22.3139V22.4544L16.774 22.5948L23.0957 28.9166L23.5874 29.4785L24.8517 30.7429L25.4137 31.5155L25.6244 32.0072V32.7096L25.2732 33.412L24.7815 33.8335L24.3601 34.0442L24.0088 34.1144H21.7611L20.4265 33.974L20.3563 35.3788V49.0759L20.4968 50.3402L20.7777 51.2534L21.129 51.6046L21.4802 51.6748L41.0073 51.745L41.5692 51.8153V55.1166L41.4287 55.2571L36.7928 55.3274H23.0255L21.6206 55.2571L20.567 55.0464L19.7241 54.6952L18.9515 54.2035L17.8276 53.0796L17.2657 52.1665L16.9847 51.1831L16.8442 49.4973V34.1847L16.9145 31.2345L17.3359 31.0238L19.0919 30.5321L19.2324 30.4619L19.1622 30.1107L18.1086 28.9868L16.9145 27.863L13.8238 24.7723L13.4024 24.2806L13.1214 24.3509L12.2785 25.264L11.5059 26.0367L11.0142 26.5986L10.382 27.2308L10.101 27.582L9.74984 27.9332L8.8367 28.7761L8.20452 29.4083L7.43187 30.3916L7.36163 30.6024L8.55573 30.8833L9.53911 31.0941L9.67959 31.2345L9.74984 32.2882L9.82008 51.6748L9.96056 53.3606L10.2415 54.5547L10.8035 56.1L11.3654 57.2239L11.9273 58.0668L12.4893 58.7692L13.5429 59.8228L14.456 60.5252L15.7204 61.2276L17.4062 61.8598L18.1086 62.0705L19.7241 62.2813H22.604L23.6576 62.211L23.7981 62.7729L23.8684 63.9671V65.8636H21.6206L19.5134 65.7933L18.1788 65.6529L16.8442 65.3719L15.4394 64.9504L14.3155 64.529L12.9107 63.7563L11.9273 63.0539L11.0142 62.2813L10.101 61.4384L9.46887 60.6657L8.76646 59.7526L7.9938 58.4882L7.1509 56.7322L6.58897 54.8357L6.37825 53.5713L6.30801 52.8689L6.23776 51.2534V34.2549L2.79593 34.1144L1.95304 34.0442L1.60183 33.8335L1.11014 32.8501L0.899414 32.2179V31.7965L1.53159 31.0238L2.72569 29.8297L3.28762 29.338L3.84955 28.7761L4.34124 28.2142L8.69621 23.8592L9.1879 23.4377L9.46887 23.0865L9.96056 22.6651L10.4523 22.1032L12.0678 20.4876L13.1917 19.6447L13.3321 19.5745Z" fill="white"/>
<path id="Vector_2" d="M94.3908 19.5745L94.8122 19.7149L95.7253 20.4876L96.8492 21.5412L104.927 29.619L105.419 30.1809L106.332 31.0941L106.823 31.7965L106.964 32.0774V32.7096L106.543 33.3418L106.051 33.7632L105.489 34.0442L105.138 34.1144H102.188L101.626 34.0442L101.555 50.27L101.485 53.0094L101.274 54.6952L100.853 56.381L100.221 57.856L99.6589 58.9097L99.0969 59.7526L98.3945 60.6657L97.7623 61.3681L96.779 62.3515L95.7956 63.1242L94.742 63.8266L93.4776 64.529L92.2835 65.0207L90.9489 65.4421L89.4036 65.7231L88.7012 65.7933L85.1189 65.9338H83.9248V64.3183L83.995 62.3515L87.7178 62.2813L88.9119 62.1408L90.5275 61.7896L91.8621 61.2979L92.9859 60.736L93.7586 60.2443L94.461 59.6823L95.1634 59.0502L95.7253 58.418L96.5682 57.2239L97.2004 55.8893L97.6219 54.6249L97.8326 53.6416L97.9731 52.2367L98.0433 50.0592L98.1136 31.7965L98.1838 31.1643L98.7457 30.9536L100.221 30.5321L100.361 30.4619L100.291 30.0404L99.2374 28.9166L98.6052 28.2844L98.4648 28.2142V28.0737H98.3243L98.1136 27.863V27.7225L97.8326 27.582L95.8658 25.6152L95.3741 25.0533L94.742 24.4211L94.3908 24.2806L94.1098 24.5616L93.6181 25.1938L92.424 26.3879L91.9323 26.9498L90.8084 28.0737L90.2465 28.5654L88.4202 30.3916L88.35 30.5321L89.4739 30.8131L90.668 31.0941L90.8787 31.2345L90.9489 31.8667V50.3402L90.8084 51.3938L90.4572 52.3772L89.7548 53.4308L89.0524 54.1333L88.1393 54.6952L87.0856 55.1166L86.1725 55.2571L84.276 55.3274H66.3644L66.2239 55.2571V53.0796L66.2942 51.6748H85.1891L86.3832 51.6046L87.0856 51.2534L87.2964 50.8319L87.4369 49.3568V34.1847L83.7843 34.1144L83.0116 33.974L82.5902 33.4823L82.239 32.7096L82.1687 32.4286V31.8667L82.5902 31.2345L83.7141 30.0404L84.1355 29.619H84.276L84.3462 29.4083H84.4867L84.6272 29.1273L89.4739 24.2806L90.2465 23.5782L91.6513 22.1734L92.143 21.6115L93.2669 20.4876L93.8288 19.9959L94.3908 19.5745Z" fill="white"/>
<path id="Vector_3" d="M53.721 0.328308L54.2127 0.39855L54.9853 0.89024L56.3902 2.29507L56.9521 2.78676L59.6213 5.45593L60.1832 5.94762L60.2534 6.15835L60.5344 6.29883L62.9929 8.75728L63.4845 9.31921L64.8191 10.6538L65.3108 11.2157L66.0132 11.9884L66.2942 12.5503L66.3644 13.1825L66.0835 13.7444L65.4513 14.3064L64.8191 14.6576L64.4679 14.7278H62.4309L61.0261 14.6576L60.9559 34.1847H57.514V11.9884L57.5843 11.7074L58.9188 11.3562L59.832 11.0752H59.9725L59.6915 10.5836L58.6379 9.4597L57.795 8.68704L56.9521 7.84414L56.3902 7.35245L54.6341 5.59642L54.3532 5.17497L54.0019 4.894L53.6507 4.96424L52.8781 5.87738L52.3864 6.36907L51.8947 6.931L50.1387 8.68704L49.5767 9.17873L49.0148 9.74066L48.3826 10.5133L47.9612 11.1455L49.2958 11.4967L50.2792 11.7074L50.3494 11.9884V23.3675L50.2792 34.1144L50.2089 34.1847H47.4695L46.9076 34.1144V14.7278H43.7467L42.6228 14.5873L42.2014 14.3766L41.8502 13.9551L41.5692 13.1123V12.4801L41.9907 11.7777L45.0813 8.68704L45.1515 8.54656H45.292L45.4325 8.26559L46.3456 7.35245H46.4861L46.5564 7.14173H46.6968L46.8373 6.86076L47.5397 6.22859L52.7376 1.03072L53.721 0.328308Z" fill="white"/>
<path id="Subtract" fill-rule="evenodd" clip-rule="evenodd" d="M61.588 37.6265H53.6507L52.8078 37.6968L51.6137 37.9075L50.4899 38.2587L49.4362 38.8206L48.2421 39.6635L47.5397 40.3659L46.9076 41.0684L46.3456 41.841L45.7837 42.9649L45.3622 44.2292L45.1515 45.7043L45.0813 47.2496V50.3402L45.1515 54.6952L45.2218 56.3108L45.4325 57.7858L45.7837 58.7692L41.9907 58.699H38.6893L36.2309 58.7692L34.4748 58.9097L33.4914 59.1204L32.0866 59.6121L30.752 60.3848L29.4174 61.2979L28.715 61.9301L27.9424 62.8432L27.1697 64.0373L26.3971 65.6529L25.9756 67.1279L25.7649 68.5328L25.6946 69.8674V80.7548L25.7649 82.4406L25.9054 83.9156L26.1161 85.0395L26.5375 86.2336L27.24 87.5682L28.0829 88.8325L28.7853 89.7457L29.7686 90.7291L30.5413 91.3612L30.9627 91.9934L31.033 106.533H33.7724L34.4046 106.463L34.4748 105.058L34.5451 97.1913L34.6153 93.9602L34.6855 93.609H34.9665L36.5821 94.0304H37.9167L38.6893 93.9602L39.181 94.1007L40.5156 94.8733L42.0609 95.7162L43.255 96.2781L45.3622 97.1913L47.8909 98.0342L50.3494 98.6663L52.1757 99.0176L54.8448 99.2985L57.233 99.439H68.261L70.6492 99.3688L71.3516 99.2985L73.3183 98.9473L73.3886 106.533H75.9173L76.8304 106.463L76.9007 97.6127L77.1114 97.0508L77.6733 96.5591L78.3757 95.9269L79.1484 95.084L79.7806 94.3114L80.3425 93.4685L80.7639 92.6256L81.1854 91.7124L81.6068 90.5886L81.8878 89.254L82.0985 87.3575V68.884L82.0283 67.8303L81.7473 66.566L81.1854 65.0909L80.4127 63.6159L79.7103 62.5622L79.0781 61.8598L78.165 61.0872L77.1816 60.3848L75.7066 59.6121L74.5124 59.1907L73.1779 58.9097L71.6325 58.7692H66.5752L62.0095 58.8394L62.2202 58.2775L62.5012 57.4346L62.7119 55.8191L62.7821 48.233L62.8524 47.6711L63.2036 47.3901L64.2572 46.6877L64.8894 46.0555L65.7323 44.9316L66.0835 44.0887L66.2942 43.1054V42.4029L66.0835 41.3493L65.662 40.3659L65.1001 39.4528L64.5382 38.8206L63.625 38.1182L62.7821 37.767L61.588 37.6265ZM69.736 62.2813H66.6454L61.9392 62.3515L59.7617 62.4218L58.6379 62.492L58.0057 62.7027L57.6545 62.9837L57.5843 63.3349L57.7247 63.5456L58.2164 64.1075L59.3403 65.3017L59.9022 65.7933L61.2368 67.1279L61.869 67.8303L61.9392 68.2518L61.5178 68.9542L60.5344 69.8673L60.1832 70.2186L59.6213 70.2888L58.8486 69.7269L57.8652 68.9542L57.514 68.884V69.5864L58.2164 73.5199L58.7081 76.0486L58.9188 76.3296L59.4105 76.47H63.2036L63.625 76.5403L64.5382 76.751L65.662 77.1725L66.224 77.2427V71.2019L69.6658 71.1317L69.736 72.6068V76.6105L69.6658 87.0765L69.5955 87.6384L69.3848 88.3408L68.9634 88.5516L67.8395 88.6921L58.3569 88.7623L56.8818 88.973L52.9483 90.0969L51.403 90.5886L47.1885 91.8529L45.2218 92.4851L44.5193 92.8363V93.047L44.7301 93.1875L45.7135 93.609L46.8373 94.0304L49.2255 94.8031L50.6304 95.1543L52.4566 95.5055L54.0019 95.646L57.1628 95.7864H70.3682L71.7028 95.646L73.1779 95.2245L74.6529 94.4519L75.7066 93.6792L76.6899 92.6958L77.2519 91.9934L77.8138 90.9398L78.2352 89.8159L78.446 88.8325L78.5864 87.0063V69.2352L78.5162 68.2518L78.3055 67.1982L77.7435 65.8636L77.0411 64.81L76.409 64.1778L75.4256 63.4051L74.2315 62.773L73.3183 62.492L72.054 62.3515L69.736 62.2813ZM36.1606 62.2813H46.6968L48.6636 62.3515L49.7172 62.492L49.9279 62.5622L50.1387 63.1944L49.647 64.1075L48.6636 65.1612L47.2588 66.566L46.6968 67.0577L46.2754 67.4089L45.9242 67.9006L45.9944 68.322L46.4861 69.0245L46.9076 69.5161L47.2588 69.9376V70.0781L47.5397 70.2186L47.8909 70.359L48.2421 70.2888L48.8041 70.0078L49.2958 69.4459L49.647 69.1649L50.1387 69.0947L50.3494 69.3054V69.8673L49.9279 71.8341L49.4363 74.2926L49.0148 76.1891L48.8041 76.47H41.6395L41.499 76.3296L41.5692 71.3424L40.7263 71.2019H38.0571L38.1274 77.8046L38.3381 79.069L38.5488 79.6309L39.0405 79.8416L39.9537 79.9119H55.4068L55.6175 79.9821L55.6877 80.1226V85.6717L55.0556 85.9526L51.4733 87.0063L46.8373 88.4111L40.7966 90.1671L39.3215 90.5183L37.9167 90.6588L37.0035 90.5886L35.8094 90.2374L34.3343 89.6754L33.2807 89.1135L32.4378 88.4813L31.5949 87.7087L30.9628 87.0063L30.2603 85.9526L29.7686 84.7585L29.277 83.0025L29.2067 82.4406L29.1365 79.2797V69.9376L29.2067 68.5328L29.4174 67.4791L29.9091 66.285L30.6115 65.1612L31.5949 64.1075L32.5081 63.4051L33.6319 62.7027L34.5451 62.4218L36.1606 62.2813ZM58.2867 48.1627H52.8781L52.7376 48.233L49.7875 51.1831L49.0148 52.1665L48.6636 52.8689L48.5231 54.2035V55.1869L48.5934 55.9595L48.8743 57.0132L49.2255 57.7858L49.7172 58.5585L50.2791 59.1204L51.2625 59.8931L52.3864 60.3848L53.5103 60.5955H54.1424L54.6341 60.5252L55.477 60.3145L56.3199 59.9633L57.0926 59.4716L57.9355 58.7692L58.6379 57.8561L59.0593 56.8727L59.2701 55.6083V48.233L58.2867 48.1627ZM54.0019 41.1386H60.1129L62.0095 41.2791L62.5714 41.4898L62.7821 42.122V42.6839L62.5714 43.3161L61.588 44.2995L60.9558 44.5804L60.6046 44.6507L51.8947 44.7209L51.2625 44.9316L50.6303 45.4233L49.9279 46.196L49.366 46.8984L48.9446 47.1091H48.5933L48.3826 46.8282V46.3365L48.8041 44.8614L49.366 43.7375L49.9982 42.8244L50.7006 42.1922L51.6137 41.6303L52.3864 41.3493L53.2293 41.2088L54.0019 41.1386ZM60.9558 79.9119H59.27L59.1998 79.9821V85.0395L59.27 85.2502L59.4105 85.3205H66.2942L66.4347 85.0395L66.2942 83.2835L66.0835 82.1596L65.662 81.3869L64.8894 80.6143L64.3274 80.1928L63.625 79.9821L60.9558 79.9119ZM53.8615 71.2019L54.3532 71.3424L54.5639 71.8341L54.9151 74.0116L55.1258 75.8379V76.47L54.9151 76.5403H53.44L52.7376 76.47L52.6674 76.3998L52.7376 75.6271L53.0186 73.8711L53.2995 71.6936L53.6507 71.2722L53.8615 71.2019ZM54.2127 65.0207L53.5103 64.8802L53.1591 65.1612L52.9483 66.0041V67.2684L53.1591 67.6196L53.5103 67.8303L54.2829 67.7601L54.7044 67.4089L54.9853 66.7065V65.9338L54.9151 65.7933L54.6341 65.3017L54.2127 65.0207Z" fill="white"/>
</g>
<defs>
<clipPath id="clip0_14_57">
<rect width="106.5" height="106.5" fill="white" transform="translate(0.75)"/>
</clipPath>
</defs>
</svg>
