<svg width="106" height="107" viewBox="0 0 106 107" fill="none" xmlns="http://www.w3.org/2000/svg">
<g id="safe-and-secure" clip-path="url(#clip0_14_39)">
<path id="Vector" d="M43.7533 36.5635H44.5802L46.1587 36.7138L47.4366 37.0145L48.8649 37.5407L49.9172 38.142L50.6689 38.7434L51.4206 39.4199L52.022 40.0964L52.9992 41.5247H53.1495L53.7509 40.773L54.2019 40.1716L55.0288 39.2696L55.7053 38.6682L56.7577 37.9165L57.9604 37.3152L58.7121 37.0145L60.441 36.6386H62.9967L64.3498 36.8642L66.1539 37.4655L67.3566 38.0669L68.1834 38.5931L69.2358 39.4951L70.0627 40.3971L70.7392 41.3743L71.3406 42.4267L72.0171 44.0804L72.2426 45.0576L72.3929 46.3355V49.7182L72.2426 51.2216L71.7916 53.2511L71.3406 54.6042L70.5889 56.3331L69.9123 57.5358L69.0103 58.964L68.1083 60.0916L67.4318 60.9184L66.6049 61.8956L66.0787 62.497H65.9284L65.8532 62.7225L65.2518 63.2487L64.1243 64.3762L63.5229 64.9024L62.3954 65.8796L61.2678 66.7817L59.8396 67.834L58.6369 68.6609L57.359 69.4878L55.8556 70.3898L53.9012 71.5173L53.4502 71.6677H52.8488L52.022 71.2918L50.5186 70.465L49.2407 69.6381L48.038 68.8864L46.6098 67.9092L45.7077 67.2327L44.7305 66.481L43.5278 65.5038L42.4754 64.6017L41.5734 63.7749L41.1224 63.399V63.2487H40.972L40.6714 62.8728L39.5438 61.7453L38.8673 60.9184L38.1156 60.0164L37.2887 58.8889L36.1612 57.16L35.4095 55.7317L34.733 54.078L34.282 52.4243L33.9813 50.4699L33.8309 48.8161V47.5382L33.9813 45.5838L34.2068 44.4563L34.5826 43.3287L35.1088 42.126L35.7853 40.9985L36.3115 40.322L36.9881 39.5703L37.7398 38.8937L39.0928 37.9917L40.2955 37.3903L41.2727 37.0145L42.9265 36.6386L43.7533 36.5635ZM43.4526 40.0964L41.8741 40.4723L40.6714 41.0737L39.7693 41.7502L38.9425 42.577L38.1908 43.7798L37.6646 44.9825L37.3639 46.3355L37.2887 47.1624V48.8161L37.4391 50.4699L37.8149 52.0484L38.3411 53.627L39.2431 55.5062L40.2203 57.0848L40.972 58.062L41.6486 58.8137L42.1748 59.415L43.0016 60.2419L43.5278 60.8433L44.2043 61.5198L44.8057 62.046L45.6326 62.7977L46.6849 63.6245L47.6621 64.3762L49.0904 65.4286L50.2179 66.1803L53.0744 67.9844L53.4502 67.9092L54.2019 67.3078L56.006 66.1803L57.2839 65.2783L58.1859 64.6769L59.1631 63.9252L60.2155 63.0984L61.343 62.1211L62.3202 61.2191L63.2223 60.3922L63.7484 59.7909L64.2746 59.2647L64.9512 58.4378L65.778 57.4606L66.5297 56.3331L67.2062 55.2055L67.8076 54.0028L68.409 52.4994L68.7848 50.996L68.9351 50.0188L69.0103 48.9665V46.9369L68.86 45.659L68.4841 44.4563L67.8076 43.1784L67.2062 42.4267L66.3794 41.5998L65.2518 40.8481L63.8988 40.322L62.7712 40.0964H60.892L59.8396 40.322L58.6369 40.8481L57.6597 41.5998L56.8328 42.4267L56.0811 43.5543L55.555 44.6818L55.1791 45.8845L54.8784 47.5382L54.7281 49.192L54.3522 49.9437L53.7509 50.4699L53.5254 50.6202L52.7737 50.6954L52.0971 50.2443L51.571 49.2671L51.4206 48.3651L51.2703 46.7865L50.8944 45.208L50.3682 43.9301L49.7669 42.8777L49.0904 42.0509L48.489 41.4495L47.5118 40.773L46.1587 40.2468L45.4071 40.0964H43.4526Z" fill="white"/>
<path id="Subtract" fill-rule="evenodd" clip-rule="evenodd" d="M34.2069 -0.26944H48.6394L60.3659 -0.19427L62.6962 0.632596L65.4023 1.53463L68.6346 2.66218L72.9192 4.16557L76.5274 5.44345L79.7597 6.571L82.7664 7.62337L87.878 9.42744L89.0807 9.95363L90.0579 10.6302L90.5841 11.1563L91.2606 12.2087L91.6365 13.3363L91.7116 13.7873V16.7189L91.4109 17.9968L90.8848 19.0492L90.2834 19.8008L89.682 20.327L88.6297 21.0036L87.427 21.3794H86.6753L84.7209 21.0787L82.992 20.6277L69.2359 16.5686L62.3955 14.539L60.3659 14.0128L59.088 13.8624L46.5347 13.9376L45.783 14.2383L44.4299 14.99L42.701 15.9672L39.2432 17.8464L38.1909 18.523L37.6647 18.974L37.5895 19.1995L39.0929 19.1243L44.881 19.0492H50.5938L52.0972 19.1243L53.2248 19.3498L54.4275 19.9512L55.3295 20.7781L55.9309 21.6049L56.3067 22.4318L56.5322 23.3338L56.6074 23.7848V25.8144L56.3067 27.1675L55.7806 28.2198L55.0289 29.0467L54.2772 29.5729L53.0744 30.1743L51.1952 30.7756L47.136 31.9783L42.8514 33.181L31.7263 36.4885L27.2913 37.7664L25.7127 38.1422L24.8107 38.2926L23.0066 38.3677H14.5876V39.7208L14.5124 41.8255L14.2869 42.8779L14.0614 43.2538L13.6856 43.4793L13.3097 43.5544L10.3029 43.6296H2.7108L1.50809 43.5544L1.05707 43.4041L0.831562 43.1034L0.681223 42.5021L0.606053 41.2242L0.530884 20.8532V16.7941L0.606053 2.88768L0.756393 1.76014L1.95911 1.6098L4.89072 1.53463H12.3325L13.6856 1.6098L14.0614 1.76014L14.2869 2.21116L14.4373 2.96285L14.5124 3.86489L14.5876 6.04481L15.2641 5.89447L16.7675 5.36828L28.1933 1.53463L31.5008 0.482256L33.0793 -0.1191L34.2069 -0.26944ZM35.7102 3.26333H59.9148L64.2747 4.76672L65.7029 5.29291L74.0467 8.22453L77.6549 9.50241L82.9919 11.3816L86.149 12.5092L87.8779 13.2609L88.1034 13.5616L88.2538 14.5388V15.5911L88.0283 16.869L87.7276 17.4704L87.4269 17.8462L87.2766 17.9214L86.149 17.8462L84.2698 17.3952L79.4589 15.967L75.8508 14.9146L70.5137 13.3361L66.6049 12.2085L61.5686 10.7051L60.0652 10.3293H45.9333L44.9561 10.7051L43.4527 11.532L41.6486 12.5844L39.8445 13.5616L38.1156 14.5388L35.8605 15.7415L34.0565 16.7939L32.4027 17.6959L30.298 18.9738L29.5463 19.4248L28.7194 20.1013L28.4939 20.4772L28.5691 21.0034L29.0201 21.7551L29.3208 22.2812L29.4711 22.3564L30.4483 22.4316L52.022 22.5819L52.7737 22.8074L53.0744 23.5591L53.1496 23.935V25.9646L52.7737 26.4156L52.1724 26.7162L49.3911 27.6183L45.9333 28.6707L43.0768 29.4975L39.7694 30.4747L33.1544 32.4291L27.5167 34.0829L25.2616 34.6091L24.1341 34.7594L23.0817 34.8346H14.8131L14.5875 34.7594L14.5124 34.4587L14.4372 10.0286L14.6627 9.80309L16.7675 9.05139L23.1569 6.87147L26.9905 5.59359L29.7718 4.61639L31.7262 4.01503L33.1544 3.56401L34.3572 3.3385L35.7102 3.26333ZM10.9794 5.0674H4.06383L3.98866 5.14257V39.8709L4.139 40.0964L6.69477 40.1716H8.04782L11.0546 40.0964L11.1298 40.0213V11.6823L11.0546 5.14257L10.9794 5.0674Z" fill="white"/>
<path id="Subtract_2" fill-rule="evenodd" clip-rule="evenodd" d="M92.6136 61.0687H102.01L104.566 61.1439L105.167 61.3694L105.317 61.5197L105.468 62.3466L105.543 64.1507V101.735L105.392 102.487L105.017 102.938L104.641 103.089L103.588 103.164H96.8231L92.7639 103.089L92.1625 102.938L91.937 102.337L91.7867 101.51L91.6364 99.1046L91.5612 98.6535L90.8847 98.8039L88.4792 99.7059L84.7207 100.909L80.9623 102.187L77.9555 103.164L73.2198 104.742L72.2426 104.817L70.213 104.893H46.5346L45.5574 104.817L44.054 104.291L41.8741 103.54L36.988 101.811L33.7558 100.683L30.4483 99.4804L26.765 98.2025L18.9473 95.4964L17.3688 94.8199L16.6922 94.3689L15.9406 93.6923L15.264 92.7903L14.8882 91.9634L14.5875 90.8359L14.5123 90.009V89.107L14.6627 87.6036L15.0385 86.3257L15.4895 85.574L16.3916 84.5968L17.2184 83.9955L18.2708 83.4693L19.1728 83.2438H19.9245L22.1796 83.77L25.2616 84.672L37.8149 88.3553L41.1224 89.3325L43.3775 90.009L45.7077 90.6856L46.5346 90.8359H58.9376L60.0651 90.6856L61.4933 89.9339L62.7712 89.1822L64.5001 88.205L65.8532 87.4533L67.5821 86.5512L68.4841 86.025L68.7848 85.6492L68.4841 85.574L65.8532 85.6492L58.6369 85.7244H54.4274L53.375 85.4989L52.1723 84.8975L51.4958 84.3713L50.8193 83.6948L50.2179 82.7176L49.842 81.6652L49.6165 80.4625V79.4101L49.842 78.1322L50.2931 76.9295L50.9696 75.9523L51.7213 75.2006L52.924 74.5993L54.9536 73.9227L57.6597 73.171L62.3202 71.7428L68.86 69.8636L76.7528 67.5333L79.6092 66.7065L81.1878 66.4058H91.6364L91.7867 63.3238L91.937 62.2714L92.2377 61.3694L92.3881 61.1439L92.6136 61.0687ZM81.8643 69.9387H91.6363L91.7867 70.1643V93.6923L91.7115 94.7447L91.2605 95.0454L88.0282 96.1729L83.7435 97.6012L81.4133 98.3529L76.7528 99.9314L74.7232 100.608L72.7688 101.209L71.7916 101.36L69.9875 101.435H47.7373L46.0084 101.36L37.1384 98.2025L35.635 97.6763L25.7878 94.2185L23.232 93.3165L20.0749 92.1889L18.7218 91.5876L18.346 91.2117L18.0453 90.6104L17.9701 90.009L18.0453 88.8815L18.346 87.8291L18.797 86.9271L19.0225 86.7016L19.9997 86.8519L23.3823 87.7539L27.2912 88.8815L30.8993 89.9339L38.5666 92.1889L44.054 93.8427L45.9332 94.2937L52.3978 94.3689H59.7644L60.7416 94.2185L61.4182 93.9178L62.9216 93.1662L64.1243 92.4145L65.9283 91.3621L67.7324 90.3849L69.4613 89.4077L71.4157 88.3553L73.1446 87.3781L74.7984 86.4761L76.6024 85.4237L77.2789 84.9727L77.5796 84.3713V83.6196L77.2789 82.6424L76.9031 82.3417L76.6024 82.2666L54.2019 82.1914L53.7509 81.8907L53.2998 81.0638L53.0743 80.4625L52.9992 80.0115V79.1094L53.2998 78.5081L53.9012 78.0571L55.0287 77.606L57.5093 76.8543L61.1927 75.802L62.8464 75.2758L65.1766 74.5993L68.4841 73.6221L71.0399 72.8704L75.55 71.5173L80.2106 70.1643L81.0374 70.0139L81.8643 69.9387ZM102.16 64.6017H95.0941V73.6221L95.1693 99.4804L95.2445 99.6307L101.559 99.7059L102.235 99.6307V79.0343L102.31 65.1279L102.16 64.6017Z" fill="white"/>
<path id="Vector_2" d="M12.8586 50.545H15.7151L23.3072 50.6202V51.6725L23.232 54.1531H13.6103L12.7834 54.078L12.8586 50.545Z" fill="white"/>
<path id="Vector_3" d="M80.2106 22.6571L80.6617 22.8074L82.8416 24.9873L82.7664 25.288L81.6389 26.4156L81.0375 26.9417L76.828 31.1512L75.7005 32.354L75.6253 32.5043L75.3246 32.4291L74.5729 31.7526L73.9716 31.1512L73.4454 30.5499L72.9192 30.0237L74.6481 28.2948L75.2494 27.7686L75.6253 27.4679L76.1515 26.8666L76.7528 26.3404L77.4294 25.6639L77.9556 25.0625L78.8576 24.0853L79.6845 23.2584L80.0603 22.7322L80.2106 22.6571Z" fill="white"/>
<path id="Vector_4" d="M30.8993 72.3442L31.5007 72.6449L32.4027 73.6221L32.7786 73.9979L33.1544 74.4489L33.0041 74.8999L32.4779 75.5013L26.765 81.2142L26.3891 81.6652L26.0133 81.8907L25.6374 81.7404L25.0361 81.2894L24.134 80.3122L23.5327 79.8611L23.4575 79.5605L23.7582 79.1094L24.134 78.7336H24.2844V78.5833L24.8857 78.0571L25.6374 77.3054L26.2388 76.7792L28.4939 74.5241L29.0201 73.9227L29.9221 73.0207L30.3731 72.4945L30.8993 72.3442Z" fill="white"/>
<path id="Vector_5" d="M83.0671 50.545L93.4405 50.6202V52.4994L93.3653 54.1531H83.7436L82.9919 54.078V52.9504L83.0671 50.545Z" fill="white"/>
<path id="Vector_6" d="M70.3635 32.7298L70.8896 32.8801L71.6413 33.5567L72.7689 34.7594L72.8441 35.0601L72.1675 35.8118L71.04 36.9393L70.6641 37.4655L70.3635 37.3151L69.3863 36.3379L68.8601 35.8869L68.2587 35.1352L68.0332 34.9097L69.2359 33.707L69.7621 33.1056L70.3635 32.7298Z" fill="white"/>
<path id="Vector_7" d="M26.9154 50.545L30.3732 50.6202V53.2511L30.298 54.078L29.9222 54.1531H27.4416L26.9154 54.078V50.545Z" fill="white"/>
<path id="Vector_8" d="M35.4847 67.3079L36.0108 67.383L36.7625 68.0596L37.5894 69.1119L37.9653 69.4126L38.1156 69.6381L38.0404 69.9388L35.9357 72.0435L35.5598 71.9684L34.6578 71.0663L33.6806 70.014L33.4551 69.7133L33.6054 69.4126L34.5826 68.4354L34.8833 67.9844L35.4847 67.3079Z" fill="white"/>
<path id="Vector_9" d="M75.9259 50.545H77.279L79.3085 50.6202L79.3837 50.9208L79.3085 53.7773L79.2334 54.1531H76.3018L76.0011 54.078L75.9259 52.4994V50.545Z" fill="white"/>
</g>
<defs>
<clipPath id="clip0_14_39">
<rect width="105" height="106.579" fill="white" transform="translate(0.5)"/>
</clipPath>
</defs>
</svg>
