<svg width="100" height="101" viewBox="0 0 100 101" fill="none" xmlns="http://www.w3.org/2000/svg">
<g id="Sociology" clip-path="url(#clip0_38_196)">
<path id="Vector" d="M41.3679 91.8678C27.7099 91.8678 15.5762 85.2138 8.03839 74.9785C7.91888 74.849 7.81281 74.7043 7.72446 74.5465C2.86426 67.7655 0 59.4604 0 50.5002C0 41.54 2.86426 33.2346 7.72446 26.4539C7.81281 26.2961 7.9186 26.1514 8.03811 26.0222C15.5759 15.7866 27.7099 9.13257 41.3679 9.13257C41.3676 9.13257 41.3682 9.13257 41.3679 9.13257C57.9116 9.13257 72.831 18.9516 79.3769 34.1472C79.8767 35.3074 79.3412 36.6532 78.1813 37.153C77.0205 37.6525 75.6752 37.1173 75.1758 35.957C74.3117 33.9514 73.2845 32.0523 72.1122 30.2703C67.5897 31.683 62.807 32.7766 57.8767 33.5322C58.7393 38.1128 59.2462 43.0765 59.3623 48.2129H62.676C63.9392 48.2129 64.9633 49.237 64.9633 50.5002C64.9633 51.7634 63.9392 52.7875 62.676 52.7875H59.3623C59.139 62.6569 57.473 71.8884 54.6147 78.9887C51.2713 87.2938 46.5666 91.8678 41.3679 91.8678ZM30.4169 71.3628C33.045 81.2654 37.3514 87.2932 41.3679 87.2932C45.385 87.2932 49.6922 81.2637 52.3203 71.3577C45.1119 70.6095 37.6199 70.6103 30.4169 71.3628ZM13.5976 74.6114C18.3575 80.086 24.7067 84.1459 31.9188 86.0638C30.5213 84.1479 29.2444 81.7789 28.1211 78.9887C27.2499 76.8246 26.4891 74.4621 25.8467 71.9444C21.6229 72.5788 17.5138 73.472 13.5976 74.6114ZM4.64491 52.7875C5.05119 59.3835 7.20382 65.5145 10.6442 70.7238C15.1604 69.3137 19.936 68.223 24.8588 67.4679C23.9962 62.8876 23.4893 57.9236 23.3732 52.7872H4.64491V52.7875ZM27.9481 52.7875C28.0676 57.927 28.5874 62.662 29.396 66.8723C37.2691 66.0089 45.469 66.0083 53.3407 66.8663C54.1487 62.6568 54.6676 57.9259 54.7874 52.7878L27.9481 52.7875ZM27.9481 48.2129H54.7872C54.6676 43.0734 54.1479 38.3384 53.3396 34.1281C45.4627 34.9918 37.2728 34.9918 29.396 34.1281C28.5877 38.3381 28.0679 43.0734 27.9481 48.2129ZM4.64491 48.2129H23.3729C23.4893 43.0765 23.9962 38.1125 24.8585 33.5322C19.9357 32.7771 15.1604 31.6864 10.6439 30.2763C7.20353 35.4859 5.05119 41.6167 4.64491 48.2129ZM30.4169 29.6373C37.6242 30.3903 45.1113 30.3901 52.3189 29.6375C49.6911 19.733 45.3847 13.7069 41.3679 13.7069C37.3514 13.7069 33.045 19.7347 30.4169 29.6373ZM50.8164 14.9357C52.2142 16.8519 53.4911 19.2209 54.6147 22.0117C55.4859 24.1758 56.2464 26.5386 56.8892 29.0563C61.1229 28.4198 65.2412 27.5244 69.1665 26.3813C64.3457 20.8255 57.9508 16.8276 50.8164 14.9357ZM13.5976 26.3887C17.5141 27.5278 21.6229 28.421 25.8464 29.0557C26.4891 26.538 27.2496 24.1758 28.1208 22.0114C29.2441 19.2212 30.5213 16.8522 31.9185 14.9363C24.7067 16.8545 18.3575 20.9141 13.5976 26.3887ZM59.7909 91.7088C59.6048 91.7088 59.4166 91.686 59.2308 91.6388C59.0444 91.5916 58.8671 91.5219 58.7018 91.4321C58.3442 91.2385 58.0551 90.9598 57.8507 90.6313C57.6952 90.3825 57.5859 90.1012 57.5356 89.8007C57.4919 89.5431 57.4922 89.2755 57.541 89.0096C57.5728 88.8349 57.6242 88.667 57.6934 88.5084L62.0559 77.7564C64.0661 72.8038 67.6823 66.2196 75.8439 66.2196H81.6591C89.821 66.2196 93.4372 72.8036 95.4471 77.7561L99.8316 88.561C100.306 89.7315 99.7427 91.0656 98.5722 91.5405C98.5607 91.5453 98.549 91.5496 98.5373 91.5542C98.5367 91.5545 98.5361 91.5547 98.5353 91.555C98.5341 91.5556 98.5327 91.5562 98.5313 91.5565C98.5298 91.557 98.5284 91.5576 98.5267 91.5585C98.5261 91.5585 98.5258 91.5588 98.5253 91.559C98.5233 91.5596 98.5213 91.5605 98.5193 91.5613C98.5127 91.5639 98.5061 91.5665 98.4995 91.5685V91.5688C98.4978 91.5693 98.4958 91.5699 98.4941 91.5708C98.4935 91.5708 98.493 91.571 98.4921 91.5713C98.491 91.5719 98.4898 91.5722 98.4887 91.5725C98.4875 91.573 98.4861 91.5736 98.4847 91.5742C98.4844 91.5742 98.4841 91.5742 98.4835 91.5745C98.2088 91.6731 97.9254 91.7137 97.6495 91.7083H59.8541C59.8329 91.7086 59.8118 91.7088 59.7909 91.7088ZM63.1881 87.1334H94.3155L91.2085 79.4764C88.7388 73.3911 85.8831 70.7945 81.6599 70.7945H75.8442C71.621 70.7945 68.7651 73.3911 66.2951 79.4767L63.1881 87.1334ZM78.7514 62.5714C73.233 62.5714 68.7436 58.0817 68.7436 52.5633C68.7436 47.045 73.233 42.5556 78.7514 42.5556C84.2694 42.5556 88.7588 47.045 88.7588 52.5633C88.7588 58.0817 84.2697 62.5714 78.7514 62.5714ZM78.7514 47.1302C75.7553 47.1302 73.3182 49.5673 73.3182 52.5633C73.3182 55.5594 75.7553 57.9968 78.7514 57.9968C81.7471 57.9968 84.1842 55.5594 84.1842 52.5633C84.1842 49.5673 81.7471 47.1302 78.7514 47.1302Z" fill="#2B2650"/>
</g>
<defs>
<clipPath id="clip0_38_196">
<rect width="100" height="100" fill="white" transform="translate(0 0.5)"/>
</clipPath>
</defs>
</svg>
