<svg width="101" height="101" viewBox="0 0 101 101" fill="none" xmlns="http://www.w3.org/2000/svg">
<g id="Statistics">
<path id="Vector" d="M8.83337 8.83337V83.8334C8.83337 86.0435 9.71135 88.1631 11.2742 89.7259C12.837 91.2887 14.9566 92.1667 17.1667 92.1667H92.1667" stroke="#2B2650" stroke-width="6.25" stroke-linecap="round" stroke-linejoin="round"/>
<path id="Vector_2" d="M38 56.75C38 53.2982 35.2018 50.5 31.75 50.5C28.2982 50.5 25.5 53.2982 25.5 56.75V69.25C25.5 72.7018 28.2982 75.5 31.75 75.5C35.2018 75.5 38 72.7018 38 69.25V56.75Z" stroke="#2B2650" stroke-width="6.25" stroke-linecap="round" stroke-linejoin="round"/>
<path id="Vector_3" d="M63 35.9166C63 32.4648 60.2018 29.6666 56.75 29.6666C53.2982 29.6666 50.5 32.4648 50.5 35.9166V48.4166C50.5 51.8684 53.2982 54.6666 56.75 54.6666C60.2018 54.6666 63 51.8684 63 48.4166V35.9166Z" stroke="#2B2650" stroke-width="6.25" stroke-linecap="round" stroke-linejoin="round"/>
<path id="Vector_4" d="M88 19.25C88 15.7982 85.2018 13 81.75 13C78.2982 13 75.5 15.7982 75.5 19.25V31.75C75.5 35.2018 78.2982 38 81.75 38C85.2018 38 88 35.2018 88 31.75V19.25Z" stroke="#2B2650" stroke-width="6.25" stroke-linecap="round" stroke-linejoin="round"/>
</g>
</svg>
