<svg width="50" height="51" viewBox="0 0 50 51" fill="none" xmlns="http://www.w3.org/2000/svg">
<g id="Symbol Alternative.svg">
<rect y="0.5" width="50" height="50" rx="25" fill="white"/>
<g id="WA_Logo">
<g id="Group">
<path id="Vector" fill-rule="evenodd" clip-rule="evenodd" d="M35.0673 15.5712C32.5208 13.0247 29.1319 11.6187 25.5228 11.6187C18.0841 11.6187 12.0386 17.6707 12.0321 25.1028C12.0321 27.4809 12.6541 29.8006 13.8334 31.8417L11.9219 38.8333L19.0755 36.9606C21.0453 38.0363 23.2614 38.6 25.5228 38.6H25.5292C32.9614 38.6 39.0134 32.548 39.0199 25.1158C39.0199 21.5066 37.6138 18.1178 35.0673 15.5712ZM25.5292 36.3191C23.5141 36.3191 21.5378 35.7748 19.8206 34.7575L19.4124 34.5178L15.1682 35.6323L16.3022 31.4983L16.0365 31.0771C14.9155 29.2952 14.3194 27.2282 14.3194 25.1093C14.3194 18.9277 19.3541 13.8995 25.5357 13.8995C28.5293 13.8995 31.348 15.0658 33.4603 17.1847C35.5792 19.3035 36.7455 22.1222 36.7391 25.1158C36.7326 31.2909 31.7044 36.3191 25.5292 36.3191ZM31.6784 27.928C31.3415 27.7595 29.6827 26.9431 29.3782 26.8329C29.0671 26.7228 28.8468 26.6644 28.62 27.0014C28.3932 27.3383 27.7518 28.0964 27.5509 28.3232C27.3565 28.55 27.1556 28.5759 26.8187 28.4075C26.4817 28.239 25.3932 27.8826 24.1102 26.7357C23.1058 25.8415 22.432 24.74 22.2376 24.403C22.0432 24.0661 22.2181 23.8847 22.3866 23.7162C22.5356 23.5672 22.7235 23.3209 22.892 23.1265C23.0605 22.9321 23.1188 22.7896 23.229 22.5628C23.3391 22.336 23.2873 22.1416 23.203 21.9732C23.1188 21.8047 22.4449 20.1459 22.1663 19.472C21.8941 18.8176 21.6155 18.9018 21.4082 18.8953C21.2138 18.8824 20.987 18.8824 20.7602 18.8824C20.5334 18.8824 20.1706 18.9666 19.8595 19.3035C19.5485 19.6405 18.6802 20.4569 18.6802 22.1157C18.6802 23.7745 19.8854 25.375 20.0539 25.6018C20.2224 25.8286 22.432 29.2304 25.8143 30.6883C26.6178 31.0382 27.2463 31.2456 27.7388 31.4011C28.5488 31.6603 29.281 31.6214 29.8641 31.5371C30.5121 31.44 31.8599 30.7207 32.1385 29.9367C32.4171 29.1526 32.4171 28.4723 32.3329 28.3362C32.2357 28.1807 32.0154 28.0964 31.6784 27.928Z" fill="#2B2650"/>
</g>
</g>
</g>
</svg>
